<?xml version="1.0" encoding="UTF-8"?><svg id="b" xmlns="http://www.w3.org/2000/svg" viewBox="0 0 679.2 390.6"><g id="c"><g id="d"><path d="M679.2,248.5c0,25.7-8.8,50.3-25,73-18.4,25.9-46.2,49.3-81.3,69H0V104.2c71.8-39.3,172.7-63.7,284.4-63.7s172.1,15.7,238.3,42.2c91,36.3,151.1,93,156.2,157.2.2,2.9.3,5.8.3,8.7Z" style="fill:#e0ede4;"/><rect x="177.5" y="62.4" width="40.1" height="3" style="fill:#fff;"/><path d="M217.6,66h-40.1c-.3,0-.6-.3-.6-.6v-3c0-.3.3-.6.6-.6h40.1c.3,0,.6.3.6.6v3c0,.3-.3.6-.6.6ZM178,64.9h39v-1.9h-39v1.9Z" style="fill:#005175;"/><rect x="217.6" y="62.4" width="35.7" height="3" style="fill:#fff;"/><path d="M253.3,66h-35.7c-.3,0-.6-.3-.6-.6v-3c0-.3.3-.6.6-.6h35.7c.3,0,.6.3.6.6v3c0,.3-.3.6-.6.6ZM218.2,64.9h34.6v-1.9h-34.6v1.9Z" style="fill:#005175;"/><rect x="180.1" y="31.2" width="34" height="31.2" style="fill:#fff;"/><path d="M214.1,63h-34c-.3,0-.6-.3-.6-.6v-31.2c0-.3.3-.6.6-.6h34c.3,0,.6.3.6.6v31.2c0,.3-.3.6-.6.6ZM180.7,61.9h32.8v-30.1h-32.8v30.1Z" style="fill:#005175;"/><path d="M233.7,10.3l-18.1,20.9h-1.5v31.2h12.5v-22h12.3v22h11.9v-31.7l-17-20.3ZM236.7,32.4h-8.1v-8.1h8.1v8.1Z" style="fill:#fff; stroke:#005175; stroke-linecap:round; stroke-linejoin:round; stroke-width:1.7px;"/><polygon points="195.4 62.4 192.8 65.4 217.6 65.4 217.6 62.4 195.4 62.4" style="fill:#ae73ad;"/><polygon points="180.1 32.4 210.7 32.4 210.7 62.4 214.1 62.4 214.1 31.2 180.1 31.2 180.1 32.4" style="fill:#ae73ad;"/><polygon points="214.1 32.4 217.6 32.4 233.9 13 250.8 33.4 250.8 30.7 233.7 10.3 216.2 31.2 214.1 31.2 214.1 32.4" style="fill:#ae73ad;"/><rect x="228.7" y="24.3" width="8.1" height="8.1" style="fill:#fff;"/><path d="M236.7,33h-8.1c-.3,0-.6-.3-.6-.6v-8.1c0-.3.3-.6.6-.6h8.1c.3,0,.6.3.6.6v8.1c0,.3-.3.6-.6.6ZM229.2,31.8h6.9v-6.9h-6.9v6.9Z" style="fill:#005175;"/><rect x="226.6" y="40.4" width="12.3" height="22" style="fill:#fff;"/><path d="M238.9,63h-12.3c-.3,0-.6-.3-.6-.6v-22c0-.3.3-.6.6-.6h12.3c.3,0,.6.3.6.6v22c0,.3-.3.6-.6.6ZM227.2,61.9h11.2v-20.8h-11.2v20.8Z" style="fill:#005175;"/><polygon points="233.7 7 214.1 29.3 176.5 29.3 196.3 6.8 233.6 6.8 233.7 7" style="fill:#ae73ad;"/><path d="M214.1,29.8h-37.6c-.2,0-.4-.1-.5-.3s0-.4,0-.6l19.8-22.5c.1-.1.3-.2.4-.2h37.3c.2,0,.3,0,.4.2l.2.2c.2.2.2.5,0,.8l-19.6,22.3c-.1.1-.3.2-.4.2ZM177.8,28.7h36.1l18.8-21.4h-36.1l-18.8,21.4Z" style="fill:#005175;"/><rect x="226.6" y="40.4" width="12.3" height="22" style="fill:#fff;"/><path d="M238.9,63h-12.3c-.3,0-.6-.3-.6-.6v-22c0-.3.3-.6.6-.6h12.3c.3,0,.6.3.6.6v22c0,.3-.3.6-.6.6ZM227.2,61.9h11.2v-20.8h-11.2v20.8Z" style="fill:#005175;"/><rect x="228.7" y="24.3" width="8.1" height="8.1" style="fill:#fff;"/><path d="M236.7,33h-8.1c-.3,0-.6-.3-.6-.6v-8.1c0-.3.3-.6.6-.6h8.1c.3,0,.6.3.6.6v8.1c0,.3-.3.6-.6.6ZM229.2,31.8h6.9v-6.9h-6.9v6.9Z" style="fill:#005175;"/><rect x="185.7" y="40.4" width="7.9" height="12.3" style="fill:#ae73ad;"/><path d="M193.6,53.3h-7.9c-.3,0-.6-.3-.6-.6v-12.3c0-.3.3-.6.6-.6h7.9c.3,0,.6.3.6.6v12.3c0,.3-.3.6-.6.6ZM186.2,52.2h6.8v-11.2h-6.8v11.2Z" style="fill:#005175;"/><rect x="199.8" y="40.4" width="7.9" height="12.3" style="fill:#ae73ad;"/><path d="M207.7,53.3h-7.9c-.3,0-.6-.3-.6-.6v-12.3c0-.3.3-.6.6-.6h7.9c.3,0,.6.3.6.6v12.3c0,.3-.3.6-.6.6ZM200.4,52.2h6.8v-11.2h-6.8v11.2Z" style="fill:#005175;"/><rect x="228.7" y="24.3" width="8.1" height="8.1" style="fill:#ae73ad;"/><path d="M236.7,33h-8.1c-.3,0-.6-.3-.6-.6v-8.1c0-.3.3-.6.6-.6h8.1c.3,0,.6.3.6.6v8.1c0,.3-.3.6-.6.6ZM229.2,31.8h6.9v-6.9h-6.9v6.9Z" style="fill:#005175;"/><rect x="226.6" y="40.4" width="12.3" height="22" style="fill:#fff;"/><path d="M238.9,63h-12.3c-.3,0-.6-.3-.6-.6v-22c0-.3.3-.6.6-.6h12.3c.3,0,.6.3.6.6v22c0,.3-.3.6-.6.6ZM227.2,61.9h11.2v-20.8h-11.2v20.8Z" style="fill:#005175;"/><rect x="203.2" y="2.4" width="5.2" height="16.3" style="fill:#ae73ad;"/><path d="M208.4,19.3h-5.2c-.3,0-.6-.3-.6-.6V2.4c0-.3.3-.6.6-.6h5.2c.3,0,.6.3.6.6v16.3c0,.3-.3.6-.6.6ZM203.8,18.1h4V2.9h-4v15.2Z" style="fill:#005175;"/><polygon points="254 30.7 250.8 30.7 233.7 10.3 215.7 31.2 177.6 31.2 175.9 29.3 214.1 29.3 233.7 7 240.8 15 250.8 26.9 254 30.7" style="fill:#fff;"/><path d="M215.7,31.8h-38c-.2,0-.3,0-.4-.2l-1.7-2c-.1-.2-.2-.4,0-.6,0-.2.3-.3.5-.3h37.9l19.5-22.1c.2-.2.6-.2.9,0l7.1,8.1,13.2,15.7c.1.2.2.4,0,.6s-.3.3-.5.3h-3.2c-.2,0-.3,0-.4-.2l-16.6-19.8-17.6,20.4c-.1.1-.3.2-.4.2ZM177.9,30.7h37.5l17.9-20.7c.1-.1.3-.2.4-.2.2,0,.3,0,.4.2l16.9,20.1h1.7l-12.4-14.7-6.7-7.6-19.2,21.8c-.1.1-.3.2-.4.2h-36.9l.7.8Z" style="fill:#005175;"/><rect x="228.8" y="42.9" width="7.9" height="19.5" style="fill:#ae73ad;"/><path d="M236.7,63h-7.9c-.3,0-.6-.3-.6-.6v-19.5c0-.3.3-.6.6-.6h7.9c.3,0,.6.3.6.6v19.5c0,.3-.3.6-.6.6ZM229.4,61.9h6.8v-18.4h-6.8v18.4Z" style="fill:#005175;"/><rect x="201.9" y=".6" width="6.4" height="2.6" style="fill:#ae73ad;"/><path d="M208.4,3.8h-6.4c-.3,0-.6-.3-.6-.6V.6c0-.3.3-.6.6-.6h6.4c.3,0,.6.3.6.6v2.6c0,.3-.3.6-.6.6ZM202.5,2.6h5.3v-1.5h-5.3v1.5Z" style="fill:#005175;"/><polygon points="213 12.5 208.4 18.7 208.4 2.4 213 2.4 213 12.5" style="fill:#fff;"/><rect x="208.4" y="2.9" width="4.6" height="1.7" style="fill:#ae73ad;"/><path d="M208.4,19.3c0,0-.1,0-.2,0-.2,0-.4-.3-.4-.5V2.4c0-.3.3-.6.6-.6h4.6c.3,0,.6.3.6.6v10.1c0,.1,0,.2-.1.3l-4.6,6.2c-.1.1-.3.2-.5.2ZM208.9,2.9v14l3.5-4.7V2.9h-3.5ZM213,12.5h0,0Z" style="fill:#005175;"/><rect x="208.4" y=".6" width="5.5" height="2.6" style="fill:#fff;"/><path d="M213.9,3.8h-5.5c-.3,0-.6-.3-.6-.6V.6c0-.3.3-.6.6-.6h5.5c.3,0,.6.3.6.6v2.6c0,.3-.3.6-.6.6ZM208.9,2.6h4.4v-1.5h-4.4v1.5Z" style="fill:#005175;"/><rect x="228.3" y="29.5" width="12.4" height="1.1" transform="translate(47.4 174.6) rotate(-45)" style="fill:#fff;"/><path d="M236.7,33h-8.1c-.3,0-.6-.3-.6-.6v-8.1c0-.3.3-.6.6-.6h8.1c.3,0,.6.3.6.6v8.1c0,.3-.3.6-.6.6ZM229.2,31.8h6.9v-6.9h-6.9v6.9Z" style="fill:#005175;"/><path d="M217.6,66h-40.1c-.3,0-.6-.3-.6-.6v-3c0-.3.3-.6.6-.6h40.1c.3,0,.6.3.6.6v3c0,.3-.3.6-.6.6ZM178,64.9h39v-1.9h-39v1.9Z" style="fill:#005175;"/><path d="M233.7,10.3l-18.1,20.9h-1.5v31.2h12.5v-22h12.3v22h11.9v-31.7l-17-20.3ZM236.7,32.4h-8.1v-8.1h8.1v8.1Z" style="fill:none; stroke:#005175; stroke-linecap:round; stroke-linejoin:round; stroke-width:1.7px;"/><rect x="152.7" y="53.6" width="1.1" height="11.7" style="fill:#005175;"/><polygon points="167.7 59.6 138.8 59.6 143.8 49 141.7 49 146.7 38.4 143.8 38.4 148.5 28.4 146 28.4 153.2 13.2 160.5 28.4 158 28.4 162.7 38.4 159.8 38.4 164.8 49 162.6 49 167.7 59.6" style="fill:#8fa297;"/><path d="M167.7,60.2h-28.9c-.2,0-.4,0-.5-.3-.1-.2-.1-.4,0-.5l4.7-9.8h-1.3c-.2,0-.4,0-.5-.3-.1-.2-.1-.4,0-.5l4.6-9.8h-2c-.2,0-.4,0-.5-.3-.1-.2-.1-.4,0-.5l4.4-9.2h-1.6c-.2,0-.4,0-.5-.3-.1-.2-.1-.4,0-.5l7.2-15.3c.2-.4.8-.4,1,0l7.3,15.3c0,.2,0,.4,0,.5s-.3.3-.5.3h-1.6l4.4,9.2c0,.2,0,.4,0,.5-.1.2-.3.3-.5.3h-2l4.6,9.8c0,.2,0,.4,0,.5-.1.2-.3.3-.5.3h-1.3l4.7,9.8c0,.2,0,.4,0,.5s-.3.3-.5.3ZM139.7,59h27.1l-4.7-9.8c0-.2,0-.4,0-.5s.3-.3.5-.3h1.3l-4.6-9.8c0-.2,0-.4,0-.5.1-.2.3-.3.5-.3h2l-4.4-9.2c0-.2,0-.4,0-.5.1-.2.3-.3.5-.3h1.6l-6.4-13.4-6.4,13.4h1.6c.2,0,.4,0,.5.3.1.2.1.4,0,.5l-4.4,9.2h2c.2,0,.4,0,.5.3.1.2.1.4,0,.5l-4.6,9.8h1.3c.2,0,.4,0,.5.3.1.2.1.4,0,.5l-4.7,9.8Z" style="fill:#005175;"/><path d="M294.1,71.7v7.2c0,.7-.6,1.3-1.3,1.3h-13c-.7,0-1.3-.6-1.3-1.3v-27.3c0-.7.6-1.3,1.3-1.3h13c.7,0,1.3.6,1.3,1.3v1.3" style="fill:#fff;"/><path d="M292.8,80.7h-13c-1,0-1.9-.8-1.9-1.9v-27.3c0-1,.8-1.9,1.9-1.9h13c1,0,1.9.8,1.9,1.9v1.3h-1.1v-1.3c0-.4-.3-.7-.7-.7h-13c-.4,0-.7.3-.7.7v27.3c0,.4.3.7.7.7h13c.4,0,.7-.3.7-.7v-7.1h1.1v7.1c0,1-.8,1.9-1.9,1.9Z" style="fill:#005175;"/><rect x="278.5" y="75.7" width="15.6" height="1.1" style="fill:#005175;"/><rect x="285" y="77.7" width="2.6" height="1.1" style="fill:#005175;"/><path d="M301.3,54.2h-15c-.7,0-1.3.6-1.3,1.3v13c0,.7.6,1.3,1.3,1.3h1.3l2,3.2,2-3.2h9.8c.7,0,1.3-.6,1.3-1.3v-13c0-.7-.6-1.3-1.3-1.3Z" style="fill:#a787b2;"/><path d="M289.6,73.6c-.2,0-.4-.1-.5-.3l-1.8-3h-1c-1,0-1.9-.8-1.9-1.9v-13c0-1,.8-1.9,1.9-1.9h15c1,0,1.9.8,1.9,1.9v13c0,1-.8,1.9-1.9,1.9h-9.4l-1.8,3c-.1.2-.3.3-.5.3ZM286.3,54.8c-.4,0-.7.3-.7.7v13c0,.4.3.7.7.7h1.3c.2,0,.4.1.5.3l1.5,2.4,1.5-2.4c.1-.2.3-.3.5-.3h9.8c.4,0,.7-.3.7-.7v-13c0-.4-.3-.7-.7-.7h-15Z" style="fill:#005175;"/><polygon points="295.4 60.7 295.4 58.1 292.8 58.1 292.8 60.7 290.2 60.7 290.2 63.3 292.8 63.3 292.8 65.9 295.4 65.9 295.4 63.3 298 63.3 298 60.7 295.4 60.7" style="fill:#fff;"/><path d="M296,66.4h-3.7v-2.6h-2.6v-3.7h2.6v-2.6h3.7v2.6h2.6v3.7h-2.6v2.6ZM293.4,65.3h1.5v-2.6h2.6v-1.5h-2.6v-2.6h-1.5v2.6h-2.6v1.5h2.6v2.6Z" style="fill:#005175;"/><path d="M81.4,66.1c0,6.3-5.1,11.3-11.3,11.3s-11.3-5.1-11.3-11.3,1.9-7.2,4.7-9.2c-.9-1.5-1.4-3.3-1.1-5.3.5-3.4,3.4-6.2,6.8-6.6s8.6,3.1,8.6,7.7-.4,2.9-1.2,4.1c2.9,2.1,4.7,5.4,4.7,9.2Z" style="fill:#8bcc99;"/><path d="M70.1,78c-6.5,0-11.9-5.3-11.9-11.9s1.7-7.1,4.6-9.4c-.9-1.6-1.2-3.4-.9-5.2.5-3.7,3.6-6.6,7.3-7,2.4-.3,4.7.5,6.5,2.1,1.8,1.6,2.8,3.8,2.8,6.2s-.3,2.8-1,4c2.9,2.3,4.6,5.7,4.6,9.4,0,6.5-5.3,11.9-11.9,11.9ZM70.1,45.6c-.3,0-.5,0-.8,0-3.2.3-5.9,2.9-6.3,6.1-.2,1.7.1,3.5,1,4.9.2.2,0,.6-.1.7-2.8,2-4.5,5.3-4.5,8.8,0,5.9,4.8,10.8,10.8,10.8s10.8-4.8,10.8-10.8-1.7-6.7-4.5-8.8c-.2-.2-.3-.5-.1-.7.7-1.1,1.1-2.5,1.1-3.8,0-2-.9-4-2.4-5.4-1.3-1.2-3-1.8-4.8-1.8Z" style="fill:#005175;"/><path d="M70.1,86.8c-.3,0-.6-.2-.6-.6v-25c0-.3.2-.6.6-.6s.6.2.6.6v25c0,.3-.2.6-.6.6Z" style="fill:#005175;"/><line x1="66.6" y1="68.9" x2="70.1" y2="73" style="fill:#fff;"/><path d="M70.1,73.6c-.2,0-.3,0-.4-.2l-3.5-4.2c-.2-.2-.2-.6,0-.8.2-.2.6-.2.8,0l3.5,4.2c.2.2.2.6,0,.8-.1,0-.2.1-.4.1Z" style="fill:#005175;"/><line x1="73.9" y1="64.7" x2="70.1" y2="67.7" style="fill:#fff;"/><path d="M70.1,68.3c-.2,0-.3,0-.4-.2-.2-.2-.1-.6,0-.8l3.8-3c.2-.2.6-.1.8,0,.2.2.1.6,0,.8l-3.8,3c-.1,0-.2.1-.3.1Z" style="fill:#005175;"/></g></g></svg>