<?xml version="1.0" encoding="UTF-8"?><svg id="b" xmlns="http://www.w3.org/2000/svg" viewBox="0 0 605.4 250"><g id="c"><g id="d"><path d="M605.4,102C516.5,40.5,95,12.4,0,244.8c0,0,605.4,5.3,605.4,5.3V102Z" style="fill:#c0ddcc;"/><rect x="492.4" y="80.6" width="1.1" height="11.7" style="fill:#005175;"/><polygon points="507.3 86.6 478.5 86.6 483.5 76 481.3 76 486.3 65.4 483.4 65.4 488.2 55.5 485.7 55.5 492.9 40.2 500.2 55.5 497.6 55.5 502.4 65.4 499.5 65.4 504.5 76 502.3 76 507.3 86.6" style="fill:#8fa297;"/><path d="M507.3,87.2h-28.9c-.2,0-.4,0-.5-.3-.1-.2-.1-.4,0-.5l4.7-9.8h-1.3c-.2,0-.4,0-.5-.3-.1-.2-.1-.4,0-.5l4.6-9.8h-2c-.2,0-.4,0-.5-.3-.1-.2-.1-.4,0-.5l4.4-9.2h-1.6c-.2,0-.4,0-.5-.3-.1-.2-.1-.4,0-.5l7.2-15.3c.2-.4.8-.4,1,0l7.2,15.3c0,.2,0,.4,0,.5-.1.2-.3.3-.5.3h-1.6l4.4,9.2c0,.2,0,.4,0,.5-.1.2-.3.3-.5.3h-2l4.6,9.8c0,.2,0,.4,0,.5-.1.2-.3.3-.5.3h-1.3l4.7,9.8c0,.2,0,.4,0,.5-.1.2-.3.3-.5.3ZM479.3,86.1h27.1l-4.7-9.8c0-.2,0-.4,0-.5.1-.2.3-.3.5-.3h1.3l-4.6-9.8c0-.2,0-.4,0-.5.1-.2.3-.3.5-.3h2l-4.4-9.2c0-.2,0-.4,0-.5.1-.2.3-.3.5-.3h1.6l-6.4-13.4-6.4,13.4h1.6c.2,0,.4,0,.5.3.1.2.1.4,0,.5l-4.4,9.2h2c.2,0,.4,0,.5.3.1.2.1.4,0,.5l-4.6,9.8h1.3c.2,0,.4,0,.5.3.1.2.1.4,0,.5l-4.7,9.8Z" style="fill:#005175;"/><path d="M319.6,3.9l-28.6,17.6v56.7h57.1V21.3l-28.6-17.4ZM314.9,68h-16.3v-13.4h16.3v13.4ZM314.9,46.3h-16.3v-13.4h16.3v13.4ZM341.6,68h-16.3v-13.4h16.3v13.4ZM341.6,46.3h-16.3v-13.4h16.3v13.4Z" style="fill:#fff;"/><path d="M348.1,78.5h-57.1c-.2,0-.3-.1-.3-.3V21.5c0-.1,0-.2.1-.2l28.6-17.6c0,0,.2,0,.3,0l28.6,17.4c0,0,.1.1.1.2v56.9c0,.2-.1.3-.3.3ZM291.3,77.9h56.5V21.5l-28.3-17.2-28.3,17.4v56.2ZM341.6,68.3h-16.3c-.2,0-.3-.1-.3-.3v-13.4c0-.2.1-.3.3-.3h16.3c.2,0,.3.1.3.3v13.4c0,.2-.1.3-.3.3ZM325.5,67.7h15.7v-12.8h-15.7v12.8ZM314.9,68.3h-16.3c-.2,0-.3-.1-.3-.3v-13.4c0-.2.1-.3.3-.3h16.3c.2,0,.3.1.3.3v13.4c0,.2-.1.3-.3.3ZM298.9,67.7h15.7v-12.8h-15.7v12.8ZM341.6,46.6h-16.3c-.2,0-.3-.1-.3-.3v-13.4c0-.2.1-.3.3-.3h16.3c.2,0,.3.1.3.3v13.4c0,.2-.1.3-.3.3ZM325.5,46h15.7v-12.8h-15.7v12.8ZM314.9,46.6h-16.3c-.2,0-.3-.1-.3-.3v-13.4c0-.2.1-.3.3-.3h16.3c.2,0,.3.1.3.3v13.4c0,.2-.1.3-.3.3ZM298.9,46h15.7v-12.8h-15.7v12.8Z" style="fill:#005175;"/><rect x="298.6" y="32.9" width="16.3" height="13.4" style="fill:#fff;"/><path d="M314.9,46.8h-16.3c-.3,0-.5-.2-.5-.5v-13.4c0-.3.2-.5.5-.5h16.3c.3,0,.5.2.5.5v13.4c0,.3-.2.5-.5.5ZM299.1,45.8h15.3v-12.4h-15.3v12.4Z" style="fill:#005175;"/><rect x="298.6" y="54.6" width="16.3" height="13.4" style="fill:#fff;"/><path d="M314.9,68.5h-16.3c-.3,0-.5-.2-.5-.5v-13.4c0-.3.2-.5.5-.5h16.3c.3,0,.5.2.5.5v13.4c0,.3-.2.5-.5.5ZM299.1,67.5h15.3v-12.4h-15.3v12.4Z" style="fill:#005175;"/><rect x="325.2" y="32.9" width="16.3" height="13.4" style="fill:#fff;"/><path d="M341.6,46.8h-16.3c-.3,0-.5-.2-.5-.5v-13.4c0-.3.2-.5.5-.5h16.3c.3,0,.5.2.5.5v13.4c0,.3-.2.5-.5.5ZM325.8,45.8h15.3v-12.4h-15.3v12.4Z" style="fill:#005175;"/><rect x="325.2" y="54.6" width="16.3" height="13.4" style="fill:#fff;"/><path d="M341.6,68.5h-16.3c-.3,0-.5-.2-.5-.5v-13.4c0-.3.2-.5.5-.5h16.3c.3,0,.5.2.5.5v13.4c0,.3-.2.5-.5.5ZM325.8,67.5h15.3v-12.4h-15.3v12.4Z" style="fill:#005175;"/><polygon points="348.1 21.1 348.1 21.3 319.6 3.9 348.1 21.1" style="fill:#fff;"/><path d="M348.1,21.8c0,0-.2,0-.3,0l-28.6-17.4c-.2-.1-.3-.5-.2-.7.1-.2.5-.3.7-.2l28.6,17.2c.2,0,.3.3.3.4v.2c0,.2-.1.4-.3.5,0,0-.2,0-.3,0Z" style="fill:#005175;"/><polygon points="348.1 21.1 348.1 21.3 319.6 3.9 348.1 21.1" style="fill:#fff;"/><path d="M348.1,21.8c0,0-.2,0-.3,0l-28.6-17.4c-.2-.1-.3-.5-.2-.7.1-.2.5-.3.7-.2l28.6,17.2c.2,0,.3.3.3.4v.2c0,.2-.1.4-.3.5,0,0-.2,0-.3,0Z" style="fill:#005175;"/><rect x="298.6" y="32.9" width="16.3" height="13.4" style="fill:#8daf9f;"/><rect x="325.2" y="32.9" width="16.3" height="13.4" style="fill:#8daf9f;"/><rect x="326.2" y="42.8" width="22" height="1" transform="translate(68 251) rotate(-45)" style="fill:#fff;"/><rect x="325.8" y="42.4" width="22" height="1" transform="translate(68.2 250.6) rotate(-45)" style="fill:#fff;"/><rect x="298.6" y="54.6" width="16.3" height="13.4" style="fill:#8daf9f;"/><rect x="325.2" y="54.6" width="16.3" height="13.4" style="fill:#8daf9f;"/><path d="M404.2,3.9l-28.6,17.6v56.7h57.1V21.3l-28.6-17.4ZM399.5,68h-16.3v-13.4h16.3v13.4ZM399.5,46.3h-16.3v-13.4h16.3v13.4ZM426.1,68h-16.3v-13.4h16.3v13.4ZM426.1,46.3h-16.3v-13.4h16.3v13.4Z" style="fill:#fff;"/><path d="M432.7,78.7h-57.1c-.3,0-.5-.2-.5-.5V21.5c0-.2,0-.3.2-.4l28.6-17.6c.2-.1.4-.1.5,0l28.6,17.4c.2,0,.3.3.3.4v56.9c0,.3-.2.5-.5.5ZM376.1,77.6h56.1V21.6l-28-17.1-28,17.3v55.9ZM426.1,68.5h-16.3c-.3,0-.5-.2-.5-.5v-13.4c0-.3.2-.5.5-.5h16.3c.3,0,.5.2.5.5v13.4c0,.3-.2.5-.5.5ZM410.3,67.5h15.3v-12.4h-15.3v12.4ZM399.5,68.5h-16.3c-.3,0-.5-.2-.5-.5v-13.4c0-.3.2-.5.5-.5h16.3c.3,0,.5.2.5.5v13.4c0,.3-.2.5-.5.5ZM383.7,67.5h15.3v-12.4h-15.3v12.4ZM426.1,46.8h-16.3c-.3,0-.5-.2-.5-.5v-13.4c0-.3.2-.5.5-.5h16.3c.3,0,.5.2.5.5v13.4c0,.3-.2.5-.5.5ZM410.3,45.7h15.3v-12.4h-15.3v12.4ZM399.5,46.8h-16.3c-.3,0-.5-.2-.5-.5v-13.4c0-.3.2-.5.5-.5h16.3c.3,0,.5.2.5.5v13.4c0,.3-.2.5-.5.5ZM383.7,45.7h15.3v-12.4h-15.3v12.4Z" style="fill:#005175;"/><rect x="383.2" y="32.9" width="16.3" height="13.4" style="fill:#fff;"/><path d="M399.5,46.8h-16.3c-.3,0-.5-.2-.5-.5v-13.4c0-.3.2-.5.5-.5h16.3c.3,0,.5.2.5.5v13.4c0,.3-.2.5-.5.5ZM383.7,45.8h15.3v-12.4h-15.3v12.4Z" style="fill:#005175;"/><rect x="383.2" y="54.6" width="16.3" height="13.4" style="fill:#fff;"/><path d="M399.5,68.5h-16.3c-.3,0-.5-.2-.5-.5v-13.4c0-.3.2-.5.5-.5h16.3c.3,0,.5.2.5.5v13.4c0,.3-.2.5-.5.5ZM383.7,67.5h15.3v-12.4h-15.3v12.4Z" style="fill:#005175;"/><rect x="409.8" y="32.9" width="16.3" height="13.4" style="fill:#fff;"/><path d="M426.1,46.8h-16.3c-.3,0-.5-.2-.5-.5v-13.4c0-.3.2-.5.5-.5h16.3c.3,0,.5.2.5.5v13.4c0,.3-.2.5-.5.5ZM410.3,45.8h15.3v-12.4h-15.3v12.4Z" style="fill:#005175;"/><rect x="409.8" y="54.6" width="16.3" height="13.4" style="fill:#fff;"/><path d="M426.1,68.5h-16.3c-.3,0-.5-.2-.5-.5v-13.4c0-.3.2-.5.5-.5h16.3c.3,0,.5.2.5.5v13.4c0,.3-.2.5-.5.5ZM410.3,67.5h15.3v-12.4h-15.3v12.4Z" style="fill:#005175;"/><polygon points="432.7 21.1 432.7 21.3 404.2 3.9 432.7 21.1" style="fill:#fff;"/><path d="M432.7,21.8c0,0-.2,0-.3,0l-28.6-17.4c-.2-.1-.3-.5-.2-.7.1-.2.5-.3.7-.2l28.6,17.2c.2,0,.3.3.3.4v.2c0,.2-.1.4-.3.5,0,0-.2,0-.3,0Z" style="fill:#005175;"/><polygon points="432.7 21.1 432.7 21.3 404.2 3.9 432.7 21.1" style="fill:#fff;"/><path d="M432.7,21.8c0,0-.2,0-.3,0l-28.6-17.4c-.2-.1-.3-.5-.2-.7.1-.2.5-.3.7-.2l28.6,17.2c.2,0,.3.3.3.4v.2c0,.2-.1.4-.3.5,0,0-.2,0-.3,0Z" style="fill:#005175;"/><rect x="383.2" y="32.9" width="16.3" height="13.4" style="fill:#8daf9f;"/><rect x="409.8" y="32.9" width="16.3" height="13.4" style="fill:#8daf9f;"/><rect x="383.2" y="54.6" width="16.3" height="13.4" style="fill:#8daf9f;"/><rect x="375.6" y="58.6" width="22" height="1" transform="translate(71.3 290.5) rotate(-45)" style="fill:#fff;"/><rect x="409.8" y="54.6" width="16.3" height="13.4" style="fill:#8daf9f;"/><rect x="411.2" y="64.4" width="22" height="1" transform="translate(77.6 317.4) rotate(-45)" style="fill:#fff;"/><polygon points="369.6 59.1 369.6 78.2 366.6 78.2 366.6 62.4 357.9 62.4 357.9 78.2 355 78.2 355 59.1 369.6 59.1" style="fill:#fff;"/><path d="M369.6,78.7h-3c-.3,0-.5-.2-.5-.5v-15.2h-7.7v15.2c0,.3-.2.5-.5.5h-2.9c-.3,0-.5-.2-.5-.5v-19.1c0-.3.2-.5.5-.5h14.6c.3,0,.5.2.5.5v19.1c0,.3-.2.5-.5.5ZM367.1,77.6h1.9v-18h-13.6v18h1.9v-15.2c0-.3.2-.5.5-.5h8.7c.3,0,.5.2.5.5v15.2Z" style="fill:#005175;"/><rect x="357.9" y="62.4" width="8.7" height="15.9" style="fill:#8eaf9f;"/><path d="M366.6,78.9h-8.7c-.3,0-.5-.2-.5-.5v-15.9c0-.3.2-.5.5-.5h8.7c.3,0,.5.2.5.5v15.9c0,.3-.2.5-.5.5ZM358.4,77.9h7.7v-14.9h-7.7v14.9Z" style="fill:#005175;"/><polygon points="375.6 47.1 375.6 78.2 369.6 78.2 369.6 59.1 355 59.1 355 78.2 348.1 78.2 348.1 47.1 375.6 47.1" style="fill:#fff;"/><path d="M375.6,78.7h-6c-.3,0-.5-.2-.5-.5v-18.6h-13.6v18.6c0,.3-.2.5-.5.5h-6.8c-.3,0-.5-.2-.5-.5v-31c0-.3.2-.5.5-.5h27.5c.3,0,.5.2.5.5v31c0,.3-.2.5-.5.5ZM370.1,77.6h5v-30h-26.4v30h5.8v-18.6c0-.3.2-.5.5-.5h14.6c.3,0,.5.2.5.5v18.6Z" style="fill:#005175;"/><rect x="350.6" y="78.2" width="22.4" height="3.9" style="fill:#8eaf9f;"/><path d="M373,82.6h-22.4c-.3,0-.5-.2-.5-.5v-3.9c0-.3.2-.5.5-.5h22.4c.3,0,.5.2.5.5v3.9c0,.3-.2.5-.5.5ZM351.1,81.6h21.4v-2.9h-21.4v2.9Z" style="fill:#005175;"/><polygon points="348.1 21.6 348.1 24 319.7 6.4 291 24.2 291 21.7 319.7 4 348.1 21.6" style="fill:#8daf9f;"/><polygon points="432.7 21.6 432.7 24 404.3 6.4 375.6 24.2 375.6 21.7 404.3 4 432.7 21.6" style="fill:#8daf9f;"/><polygon points="348.1 78.2 350.6 78.2 350.6 49.2 373 49.2 373 78.2 375.6 78.2 375.6 47.1 348.1 47.1 348.1 78.2" style="fill:#8daf9f;"/><polygon points="354.4 21.9 352.8 24.1 319.6 3.9 291 21.5 286.8 24.1 285 21.9 319.7 .5 354.4 21.9" style="fill:#fff;"/><path d="M352.8,24.6c0,0-.2,0-.3,0l-32.9-20.1-32.5,20.1c-.2.1-.5,0-.7-.1l-1.7-2.2c0-.1-.1-.3-.1-.4,0-.1.1-.3.2-.4L319.4,0c.2-.1.4-.1.5,0l34.7,21.4c.1,0,.2.2.2.3,0,.1,0,.3,0,.4l-1.6,2.2c-.1.1-.3.2-.4.2ZM285.8,22.1l1.1,1.4,32.4-20c.2-.1.4-.1.5,0l32.8,20,1-1.3L319.7,1.1l-33.9,20.9Z" style="fill:#005175;"/><polygon points="439 21.9 437.4 24.1 404.2 3.9 375.6 21.5 371.4 24.1 369.6 21.9 404.3 .5 439 21.9" style="fill:#fff;"/><path d="M437.4,24.6c0,0-.2,0-.3,0l-32.9-20.1-32.5,20.1c-.2.1-.5,0-.7-.1l-1.7-2.2c0-.1-.1-.3-.1-.4,0-.1.1-.3.2-.4L404,0c.2-.1.4-.1.5,0l34.7,21.4c.1,0,.2.2.2.3,0,.1,0,.3,0,.4l-1.6,2.2c-.1.1-.3.2-.4.2ZM370.4,22.1l1.1,1.4,32.4-20c.2-.1.4-.1.5,0l32.8,20,1-1.3L404.3,1.1l-33.9,20.9Z" style="fill:#005175;"/><path d="M348.1,78.7h-57.1c-.3,0-.5-.2-.5-.5V21.5c0-.2,0-.3.2-.4l28.6-17.6c.2-.1.4-.1.5,0l28.6,17.4c.2,0,.3.3.3.4v56.9c0,.3-.2.5-.5.5ZM291.6,77.6h56.1V21.6l-28-17.1-28,17.3v55.9ZM341.6,68.5h-16.3c-.3,0-.5-.2-.5-.5v-13.4c0-.3.2-.5.5-.5h16.3c.3,0,.5.2.5.5v13.4c0,.3-.2.5-.5.5ZM325.8,67.5h15.3v-12.4h-15.3v12.4ZM314.9,68.5h-16.3c-.3,0-.5-.2-.5-.5v-13.4c0-.3.2-.5.5-.5h16.3c.3,0,.5.2.5.5v13.4c0,.3-.2.5-.5.5ZM299.1,67.5h15.3v-12.4h-15.3v12.4ZM341.6,46.8h-16.3c-.3,0-.5-.2-.5-.5v-13.4c0-.3.2-.5.5-.5h16.3c.3,0,.5.2.5.5v13.4c0,.3-.2.5-.5.5ZM325.8,45.7h15.3v-12.4h-15.3v12.4ZM314.9,46.8h-16.3c-.3,0-.5-.2-.5-.5v-13.4c0-.3.2-.5.5-.5h16.3c.3,0,.5.2.5.5v13.4c0,.3-.2.5-.5.5ZM299.1,45.7h15.3v-12.4h-15.3v12.4Z" style="fill:#005175;"/><path d="M432.7,78.7h-57.1c-.3,0-.5-.2-.5-.5V21.5c0-.2,0-.3.2-.4l28.6-17.6c.2-.1.4-.1.5,0l28.6,17.4c.2,0,.3.3.3.4v56.9c0,.3-.2.5-.5.5ZM376.1,77.6h56.1V21.6l-28-17.1-28,17.3v55.9ZM426.1,68.5h-16.3c-.3,0-.5-.2-.5-.5v-13.4c0-.3.2-.5.5-.5h16.3c.3,0,.5.2.5.5v13.4c0,.3-.2.5-.5.5ZM410.3,67.5h15.3v-12.4h-15.3v12.4ZM399.5,68.5h-16.3c-.3,0-.5-.2-.5-.5v-13.4c0-.3.2-.5.5-.5h16.3c.3,0,.5.2.5.5v13.4c0,.3-.2.5-.5.5ZM383.7,67.5h15.3v-12.4h-15.3v12.4ZM426.1,46.8h-16.3c-.3,0-.5-.2-.5-.5v-13.4c0-.3.2-.5.5-.5h16.3c.3,0,.5.2.5.5v13.4c0,.3-.2.5-.5.5ZM410.3,45.7h15.3v-12.4h-15.3v12.4ZM399.5,46.8h-16.3c-.3,0-.5-.2-.5-.5v-13.4c0-.3.2-.5.5-.5h16.3c.3,0,.5.2.5.5v13.4c0,.3-.2.5-.5.5ZM383.7,45.7h15.3v-12.4h-15.3v12.4Z" style="fill:#005175;"/><rect x="348.1" y="39.1" width="27.5" height="8.1" style="fill:#8eaf9f;"/><path d="M375.6,47.7h-27.5c-.3,0-.5-.2-.5-.5v-8.1c0-.3.2-.5.5-.5h27.5c.3,0,.5.2.5.5v8.1c0,.3-.2.5-.5.5ZM348.7,46.6h26.4v-7h-26.4v7Z" style="fill:#005175;"/><rect x="373" y="78.2" width="62.2" height="3.9" style="fill:#fff;"/><path d="M435.2,82.6h-62.2c-.3,0-.5-.2-.5-.5v-3.9c0-.3.2-.5.5-.5h62.2c.3,0,.5.2.5.5v3.9c0,.3-.2.5-.5.5ZM373.6,81.6h61.2v-2.9h-61.2v2.9Z" style="fill:#005175;"/><rect x="288.1" y="78.2" width="62.5" height="3.9" style="fill:#fff;"/><path d="M350.6,82.6h-62.5c-.3,0-.5-.2-.5-.5v-3.9c0-.3.2-.5.5-.5h62.5c.3,0,.5.2.5.5v3.9c0,.3-.2.5-.5.5ZM288.6,81.6h61.5v-2.9h-61.5v2.9Z" style="fill:#005175;"/><polygon points="325.2 25.6 314.2 25.6 314.2 16.9 319.7 13.3 325.2 16.9 325.2 25.6" style="fill:#8eaf9f;"/><path d="M325.2,26.1h-11.1c-.3,0-.5-.2-.5-.5v-8.7c0-.2,0-.3.2-.4l5.5-3.6c.2-.1.4-.1.6,0l5.5,3.6c.1,0,.2.3.2.4v8.7c0,.3-.2.5-.5.5ZM314.7,25.1h10v-7.9l-5-3.2-5,3.2v7.9Z" style="fill:#005175;"/><polygon points="409.8 25.6 398.8 25.6 398.8 16.9 404.3 13.3 409.8 16.9 409.8 25.6" style="fill:#8eaf9f;"/><path d="M409.8,26.1h-11.1c-.3,0-.5-.2-.5-.5v-8.7c0-.2,0-.3.2-.4l5.5-3.6c.2-.1.4-.1.6,0l5.5,3.6c.1,0,.2.3.2.4v8.7c0,.3-.2.5-.5.5ZM399.3,25.1h10v-7.9l-5-3.2-5,3.2v7.9Z" style="fill:#005175;"/></g></g></svg>