<?xml version="1.0" encoding="UTF-8"?><svg id="b" xmlns="http://www.w3.org/2000/svg" viewBox="0 0 613.1 431.4"><g id="c"><g id="d"><path d="M613.1,104.2C524.1,42.7,124,17.7,0,230.7c0,.1,376.5-17.2,411.9,200.7h201.2V104.2Z" style="fill:#c0ddcc;"/><rect x="491.7" y="80.6" width="1.1" height="11.7" style="fill:#005175;"/><polygon points="506.7 86.6 477.8 86.6 482.8 76 480.6 76 485.6 65.4 482.7 65.4 487.5 55.5 485 55.5 492.2 40.2 499.5 55.5 497 55.5 501.7 65.4 498.8 65.4 503.8 76 501.6 76 506.7 86.6" style="fill:#8fa297;"/><path d="M506.7,87.2h-28.9c-.2,0-.4,0-.5-.3-.1-.2-.1-.4,0-.5l4.7-9.8h-1.3c-.2,0-.4,0-.5-.3-.1-.2-.1-.4,0-.5l4.6-9.8h-2c-.2,0-.4,0-.5-.3-.1-.2-.1-.4,0-.5l4.4-9.2h-1.6c-.2,0-.4,0-.5-.3-.1-.2-.1-.4,0-.5l7.2-15.3c.2-.4.8-.4,1,0l7.2,15.3c0,.2,0,.4,0,.5-.1.2-.3.3-.5.3h-1.6l4.4,9.2c0,.2,0,.4,0,.5-.1.2-.3.3-.5.3h-2l4.6,9.8c0,.2,0,.4,0,.5-.1.2-.3.3-.5.3h-1.3l4.7,9.8c0,.2,0,.4,0,.5-.1.2-.3.3-.5.3ZM478.6,86.1h27.1l-4.7-9.8c0-.2,0-.4,0-.5.1-.2.3-.3.5-.3h1.3l-4.6-9.8c0-.2,0-.4,0-.5.1-.2.3-.3.5-.3h2l-4.4-9.2c0-.2,0-.4,0-.5.1-.2.3-.3.5-.3h1.6l-6.4-13.4-6.4,13.4h1.6c.2,0,.4,0,.5.3.1.2.1.4,0,.5l-4.4,9.2h2c.2,0,.4,0,.5.3.1.2.1.4,0,.5l-4.6,9.8h1.3c.2,0,.4,0,.5.3.1.2.1.4,0,.5l-4.7,9.8Z" style="fill:#005175;"/><ellipse cx="197.2" cy="96" rx="6.9" ry="8.5" style="fill:#8eaf9f;"/><path d="M197.2,105c-4.1,0-7.4-4-7.4-9s3.3-9,7.4-9,7.4,4,7.4,9-3.3,9-7.4,9ZM197.2,88c-3.6,0-6.5,3.6-6.5,8s2.9,8,6.5,8,6.5-3.6,6.5-8-2.9-8-6.5-8Z" style="fill:#005175;"/><circle cx="207.2" cy="102.5" r="2" style="fill:#8eaf9f;"/><path d="M207.2,105c-1.4,0-2.5-1.1-2.5-2.5s1.1-2.5,2.5-2.5,2.5,1.1,2.5,2.5-1.1,2.5-2.5,2.5ZM207.2,100.9c-.9,0-1.6.7-1.6,1.6s.7,1.6,1.6,1.6,1.6-.7,1.6-1.6-.7-1.6-1.6-1.6Z" style="fill:#005175;"/><path d="M205.9,84h-10.2c-.3,0-.6-.2-.6-.6s.2-.6.6-.6h10.2c.3,0,.6.2.6.6s-.2.6-.6.6Z" style="fill:#005175;"/><path d="M207.2,101c-.3,0-.6-.2-.6-.6v-6.8c0-.3.2-.6.6-.6s.6.2.6.6v6.8c0,.3-.2.6-.6.6Z" style="fill:#005175;"/><path d="M195.7,86c-.3,0-.6-.2-.6-.6v-8.2c0-.8-.7-1.5-1.5-1.5h-2.7c-.3,0-.6-.2-.6-.6s.2-.6.6-.6h2.7c1.4,0,2.6,1.2,2.6,2.6v8.2c0,.3-.2.6-.6.6Z" style="fill:#005175;"/><circle cx="218.8" cy="102.5" r="2" style="fill:#8eaf9f;"/><path d="M218.8,105c-1.4,0-2.5-1.1-2.5-2.5s1.1-2.5,2.5-2.5,2.5,1.1,2.5,2.5-1.1,2.5-2.5,2.5ZM218.8,100.9c-.9,0-1.6.7-1.6,1.6s.7,1.6,1.6,1.6,1.6-.7,1.6-1.6-.7-1.6-1.6-1.6Z" style="fill:#005175;"/><path d="M217.4,84h-8.8c-.3,0-.6-.2-.6-.6s.2-.6.6-.6h8.8c.3,0,.6.2.6.6s-.2.6-.6.6Z" style="fill:#005175;"/><path d="M218.8,101h0c-.3,0-.6-.2-.6-.6v-6.3s-12.4,0-12.4,0c-.3,0-.6-.2-.6-.6s.2-.6.6-.6h12.9c.1,0,.3,0,.4.2s.2.2.2.4v6.8c0,.3-.3.6-.6.6Z" style="fill:#005175;"/><path d="M215.4,90.1c-.3,0-.6-.2-.6-.6v-6.1c0-.3.2-.6.6-.6s.6.2.6.6v6.1c0,.3-.2.6-.6.6Z" style="fill:#005175;"/><path d="M208.6,88.1c-.3,0-.6-.2-.6-.6v-10.2c0-.8-.7-1.5-1.5-1.5h-2.7c-.3,0-.6-.2-.6-.6s.2-.6.6-.6h2.7c1.4,0,2.6,1.2,2.6,2.6v10.2c0,.3-.2.6-.6.6Z" style="fill:#005175;"/><path d="M218.8,94.2c-.3,0-.6-.2-.6-.6v-1.4c0-1.2-.7-2.2-1.4-2.2h-11.5c-.3,0-.6-.2-.6-.6s.2-.6.6-.6h11.5c1.4,0,2.5,1.5,2.5,3.3v1.4c0,.3-.2.6-.6.6Z" style="fill:#005175;"/><path d="M203.8,88.1c-.3,0-.6-.2-.6-.6v-4.1c0-.3.2-.6.6-.6s.6.2.6.6v4.1c0,.3-.2.6-.6.6Z" style="fill:#005175;"/><path d="M208.6,79.2h-12.9c-.3,0-.6-.2-.6-.6s.2-.6.6-.6h12.9c.3,0,.6.2.6.6s-.2.6-.6.6Z" style="fill:#005175;"/><path d="M318.9,3.9l-28.6,17.6v56.7h57.1V21.3l-28.6-17.4ZM314.2,68h-16.3v-13.4h16.3v13.4ZM314.2,46.3h-16.3v-13.4h16.3v13.4ZM340.9,68h-16.3v-13.4h16.3v13.4ZM340.9,46.3h-16.3v-13.4h16.3v13.4Z" style="fill:#fff;"/><path d="M347.4,78.5h-57.1c-.2,0-.3-.1-.3-.3V21.5c0-.1,0-.2.1-.2l28.6-17.6c0,0,.2,0,.3,0l28.6,17.4c0,0,.1.1.1.2v56.9c0,.2-.1.3-.3.3ZM290.6,77.9h56.5V21.5l-28.3-17.2-28.3,17.4v56.2ZM340.9,68.3h-16.3c-.2,0-.3-.1-.3-.3v-13.4c0-.2.1-.3.3-.3h16.3c.2,0,.3.1.3.3v13.4c0,.2-.1.3-.3.3ZM324.8,67.7h15.7v-12.8h-15.7v12.8ZM314.2,68.3h-16.3c-.2,0-.3-.1-.3-.3v-13.4c0-.2.1-.3.3-.3h16.3c.2,0,.3.1.3.3v13.4c0,.2-.1.3-.3.3ZM298.2,67.7h15.7v-12.8h-15.7v12.8ZM340.9,46.6h-16.3c-.2,0-.3-.1-.3-.3v-13.4c0-.2.1-.3.3-.3h16.3c.2,0,.3.1.3.3v13.4c0,.2-.1.3-.3.3ZM324.8,46h15.7v-12.8h-15.7v12.8ZM314.2,46.6h-16.3c-.2,0-.3-.1-.3-.3v-13.4c0-.2.1-.3.3-.3h16.3c.2,0,.3.1.3.3v13.4c0,.2-.1.3-.3.3ZM298.2,46h15.7v-12.8h-15.7v12.8Z" style="fill:#005175;"/><rect x="297.9" y="32.9" width="16.3" height="13.4" style="fill:#fff;"/><path d="M314.2,46.8h-16.3c-.3,0-.5-.2-.5-.5v-13.4c0-.3.2-.5.5-.5h16.3c.3,0,.5.2.5.5v13.4c0,.3-.2.5-.5.5ZM298.4,45.8h15.3v-12.4h-15.3v12.4Z" style="fill:#005175;"/><rect x="297.9" y="54.6" width="16.3" height="13.4" style="fill:#fff;"/><path d="M314.2,68.5h-16.3c-.3,0-.5-.2-.5-.5v-13.4c0-.3.2-.5.5-.5h16.3c.3,0,.5.2.5.5v13.4c0,.3-.2.5-.5.5ZM298.4,67.5h15.3v-12.4h-15.3v12.4Z" style="fill:#005175;"/><rect x="324.5" y="32.9" width="16.3" height="13.4" style="fill:#fff;"/><path d="M340.9,46.8h-16.3c-.3,0-.5-.2-.5-.5v-13.4c0-.3.2-.5.5-.5h16.3c.3,0,.5.2.5.5v13.4c0,.3-.2.5-.5.5ZM325.1,45.8h15.3v-12.4h-15.3v12.4Z" style="fill:#005175;"/><rect x="324.5" y="54.6" width="16.3" height="13.4" style="fill:#fff;"/><path d="M340.9,68.5h-16.3c-.3,0-.5-.2-.5-.5v-13.4c0-.3.2-.5.5-.5h16.3c.3,0,.5.2.5.5v13.4c0,.3-.2.5-.5.5ZM325.1,67.5h15.3v-12.4h-15.3v12.4Z" style="fill:#005175;"/><polygon points="347.4 21.1 347.4 21.3 318.9 3.9 347.4 21.1" style="fill:#fff;"/><path d="M347.4,21.8c0,0-.2,0-.3,0l-28.6-17.4c-.2-.1-.3-.5-.2-.7.1-.2.5-.3.7-.2l28.6,17.2c.2,0,.3.3.3.4v.2c0,.2-.1.4-.3.5,0,0-.2,0-.3,0Z" style="fill:#005175;"/><polygon points="347.4 21.1 347.4 21.3 318.9 3.9 347.4 21.1" style="fill:#fff;"/><path d="M347.4,21.8c0,0-.2,0-.3,0l-28.6-17.4c-.2-.1-.3-.5-.2-.7.1-.2.5-.3.7-.2l28.6,17.2c.2,0,.3.3.3.4v.2c0,.2-.1.4-.3.5,0,0-.2,0-.3,0Z" style="fill:#005175;"/><rect x="297.9" y="32.9" width="16.3" height="13.4" style="fill:#8daf9f;"/><rect x="324.5" y="32.9" width="16.3" height="13.4" style="fill:#8daf9f;"/><rect x="325.6" y="42.8" width="22" height="1" transform="translate(67.8 250.6) rotate(-45)" style="fill:#fff;"/><rect x="325.1" y="42.4" width="22" height="1" transform="translate(68 250.1) rotate(-45)" style="fill:#fff;"/><rect x="297.9" y="54.6" width="16.3" height="13.4" style="fill:#8daf9f;"/><rect x="324.5" y="54.6" width="16.3" height="13.4" style="fill:#8daf9f;"/><path d="M403.5,3.9l-28.6,17.6v56.7h57.1V21.3l-28.6-17.4ZM398.8,68h-16.3v-13.4h16.3v13.4ZM398.8,46.3h-16.3v-13.4h16.3v13.4ZM425.4,68h-16.3v-13.4h16.3v13.4ZM425.4,46.3h-16.3v-13.4h16.3v13.4Z" style="fill:#fff;"/><path d="M432,78.7h-57.1c-.3,0-.5-.2-.5-.5V21.5c0-.2,0-.3.2-.4l28.6-17.6c.2-.1.4-.1.5,0l28.6,17.4c.2,0,.3.3.3.4v56.9c0,.3-.2.5-.5.5ZM375.4,77.6h56.1V21.6l-28-17.1-28,17.3v55.9ZM425.4,68.5h-16.3c-.3,0-.5-.2-.5-.5v-13.4c0-.3.2-.5.5-.5h16.3c.3,0,.5.2.5.5v13.4c0,.3-.2.5-.5.5ZM409.6,67.5h15.3v-12.4h-15.3v12.4ZM398.8,68.5h-16.3c-.3,0-.5-.2-.5-.5v-13.4c0-.3.2-.5.5-.5h16.3c.3,0,.5.2.5.5v13.4c0,.3-.2.5-.5.5ZM383,67.5h15.3v-12.4h-15.3v12.4ZM425.4,46.8h-16.3c-.3,0-.5-.2-.5-.5v-13.4c0-.3.2-.5.5-.5h16.3c.3,0,.5.2.5.5v13.4c0,.3-.2.5-.5.5ZM409.6,45.7h15.3v-12.4h-15.3v12.4ZM398.8,46.8h-16.3c-.3,0-.5-.2-.5-.5v-13.4c0-.3.2-.5.5-.5h16.3c.3,0,.5.2.5.5v13.4c0,.3-.2.5-.5.5ZM383,45.7h15.3v-12.4h-15.3v12.4Z" style="fill:#005175;"/><rect x="382.5" y="32.9" width="16.3" height="13.4" style="fill:#fff;"/><path d="M398.8,46.8h-16.3c-.3,0-.5-.2-.5-.5v-13.4c0-.3.2-.5.5-.5h16.3c.3,0,.5.2.5.5v13.4c0,.3-.2.5-.5.5ZM383,45.8h15.3v-12.4h-15.3v12.4Z" style="fill:#005175;"/><rect x="382.5" y="54.6" width="16.3" height="13.4" style="fill:#fff;"/><path d="M398.8,68.5h-16.3c-.3,0-.5-.2-.5-.5v-13.4c0-.3.2-.5.5-.5h16.3c.3,0,.5.2.5.5v13.4c0,.3-.2.5-.5.5ZM383,67.5h15.3v-12.4h-15.3v12.4Z" style="fill:#005175;"/><rect x="409.1" y="32.9" width="16.3" height="13.4" style="fill:#fff;"/><path d="M425.4,46.8h-16.3c-.3,0-.5-.2-.5-.5v-13.4c0-.3.2-.5.5-.5h16.3c.3,0,.5.2.5.5v13.4c0,.3-.2.5-.5.5ZM409.7,45.8h15.3v-12.4h-15.3v12.4Z" style="fill:#005175;"/><rect x="409.1" y="54.6" width="16.3" height="13.4" style="fill:#fff;"/><path d="M425.4,68.5h-16.3c-.3,0-.5-.2-.5-.5v-13.4c0-.3.2-.5.5-.5h16.3c.3,0,.5.2.5.5v13.4c0,.3-.2.5-.5.5ZM409.7,67.5h15.3v-12.4h-15.3v12.4Z" style="fill:#005175;"/><polygon points="432 21.1 432 21.3 403.5 3.9 432 21.1" style="fill:#fff;"/><path d="M432,21.8c0,0-.2,0-.3,0l-28.6-17.4c-.2-.1-.3-.5-.2-.7.1-.2.5-.3.7-.2l28.6,17.2c.2,0,.3.3.3.4v.2c0,.2-.1.4-.3.5,0,0-.2,0-.3,0Z" style="fill:#005175;"/><polygon points="432 21.1 432 21.3 403.5 3.9 432 21.1" style="fill:#fff;"/><path d="M432,21.8c0,0-.2,0-.3,0l-28.6-17.4c-.2-.1-.3-.5-.2-.7.1-.2.5-.3.7-.2l28.6,17.2c.2,0,.3.3.3.4v.2c0,.2-.1.4-.3.5,0,0-.2,0-.3,0Z" style="fill:#005175;"/><rect x="382.5" y="32.9" width="16.3" height="13.4" style="fill:#8daf9f;"/><rect x="409.1" y="32.9" width="16.3" height="13.4" style="fill:#8daf9f;"/><rect x="382.5" y="54.6" width="16.3" height="13.4" style="fill:#8daf9f;"/><rect x="374.9" y="58.6" width="22" height="1" transform="translate(71.1 290) rotate(-45)" style="fill:#fff;"/><rect x="409.1" y="54.6" width="16.3" height="13.4" style="fill:#8daf9f;"/><rect x="410.5" y="64.4" width="22" height="1" transform="translate(77.4 316.9) rotate(-45)" style="fill:#fff;"/><polygon points="368.9 59.1 368.9 78.2 365.9 78.2 365.9 62.4 357.2 62.4 357.2 78.2 354.3 78.2 354.3 59.1 368.9 59.1" style="fill:#fff;"/><path d="M368.9,78.7h-3c-.3,0-.5-.2-.5-.5v-15.2h-7.7v15.2c0,.3-.2.5-.5.5h-2.9c-.3,0-.5-.2-.5-.5v-19.1c0-.3.2-.5.5-.5h14.6c.3,0,.5.2.5.5v19.1c0,.3-.2.5-.5.5ZM366.5,77.6h1.9v-18h-13.6v18h1.9v-15.2c0-.3.2-.5.5-.5h8.7c.3,0,.5.2.5.5v15.2Z" style="fill:#005175;"/><rect x="357.2" y="62.4" width="8.7" height="15.9" style="fill:#8eaf9f;"/><path d="M365.9,78.9h-8.7c-.3,0-.5-.2-.5-.5v-15.9c0-.3.2-.5.5-.5h8.7c.3,0,.5.2.5.5v15.9c0,.3-.2.5-.5.5ZM357.7,77.9h7.7v-14.9h-7.7v14.9Z" style="fill:#005175;"/><polygon points="374.9 47.1 374.9 78.2 368.9 78.2 368.9 59.1 354.3 59.1 354.3 78.2 347.4 78.2 347.4 47.1 374.9 47.1" style="fill:#fff;"/><path d="M374.9,78.7h-6c-.3,0-.5-.2-.5-.5v-18.6h-13.6v18.6c0,.3-.2.5-.5.5h-6.8c-.3,0-.5-.2-.5-.5v-31c0-.3.2-.5.5-.5h27.5c.3,0,.5.2.5.5v31c0,.3-.2.5-.5.5ZM369.4,77.6h5v-30h-26.4v30h5.8v-18.6c0-.3.2-.5.5-.5h14.6c.3,0,.5.2.5.5v18.6Z" style="fill:#005175;"/><rect x="349.9" y="78.2" width="22.4" height="3.9" style="fill:#8eaf9f;"/><path d="M372.3,82.6h-22.4c-.3,0-.5-.2-.5-.5v-3.9c0-.3.2-.5.5-.5h22.4c.3,0,.5.2.5.5v3.9c0,.3-.2.5-.5.5ZM350.4,81.6h21.4v-2.9h-21.4v2.9Z" style="fill:#005175;"/><polygon points="347.4 21.6 347.4 24 319 6.4 290.3 24.2 290.3 21.7 319 4 347.4 21.6" style="fill:#8daf9f;"/><polygon points="432 21.6 432 24 403.6 6.4 374.9 24.2 374.9 21.7 403.6 4 432 21.6" style="fill:#8daf9f;"/><polygon points="347.4 78.2 349.9 78.2 349.9 49.2 372.3 49.2 372.3 78.2 374.9 78.2 374.9 47.1 347.4 47.1 347.4 78.2" style="fill:#8daf9f;"/><polygon points="353.7 21.9 352.1 24.1 318.9 3.9 290.3 21.5 286.1 24.1 284.3 21.9 319 .5 353.7 21.9" style="fill:#fff;"/><path d="M352.1,24.6c0,0-.2,0-.3,0l-32.9-20.1-32.5,20.1c-.2.1-.5,0-.7-.1l-1.7-2.2c0-.1-.1-.3-.1-.4,0-.1.1-.3.2-.4L318.7,0c.2-.1.4-.1.5,0l34.7,21.4c.1,0,.2.2.2.3,0,.1,0,.3,0,.4l-1.6,2.2c-.1.1-.3.2-.4.2ZM285.1,22.1l1.1,1.4,32.4-20c.2-.1.4-.1.5,0l32.8,20,1-1.3L319,1.1l-33.9,20.9Z" style="fill:#005175;"/><polygon points="438.3 21.9 436.7 24.1 403.5 3.9 374.9 21.5 370.7 24.1 368.9 21.9 403.6 .5 438.3 21.9" style="fill:#fff;"/><path d="M436.7,24.6c0,0-.2,0-.3,0l-32.9-20.1-32.5,20.1c-.2.1-.5,0-.7-.1l-1.7-2.2c0-.1-.1-.3-.1-.4,0-.1.1-.3.2-.4L403.3,0c.2-.1.4-.1.5,0l34.7,21.4c.1,0,.2.2.2.3,0,.1,0,.3,0,.4l-1.6,2.2c-.1.1-.3.2-.4.2ZM369.7,22.1l1.1,1.4,32.4-20c.2-.1.4-.1.5,0l32.8,20,1-1.3L403.6,1.1l-33.9,20.9Z" style="fill:#005175;"/><path d="M347.4,78.7h-57.1c-.3,0-.5-.2-.5-.5V21.5c0-.2,0-.3.2-.4l28.6-17.6c.2-.1.4-.1.5,0l28.6,17.4c.2,0,.3.3.3.4v56.9c0,.3-.2.5-.5.5ZM290.9,77.6h56.1V21.6l-28-17.1-28,17.3v55.9ZM340.9,68.5h-16.3c-.3,0-.5-.2-.5-.5v-13.4c0-.3.2-.5.5-.5h16.3c.3,0,.5.2.5.5v13.4c0,.3-.2.5-.5.5ZM325.1,67.5h15.3v-12.4h-15.3v12.4ZM314.2,68.5h-16.3c-.3,0-.5-.2-.5-.5v-13.4c0-.3.2-.5.5-.5h16.3c.3,0,.5.2.5.5v13.4c0,.3-.2.5-.5.5ZM298.4,67.5h15.3v-12.4h-15.3v12.4ZM340.9,46.8h-16.3c-.3,0-.5-.2-.5-.5v-13.4c0-.3.2-.5.5-.5h16.3c.3,0,.5.2.5.5v13.4c0,.3-.2.5-.5.5ZM325.1,45.7h15.3v-12.4h-15.3v12.4ZM314.2,46.8h-16.3c-.3,0-.5-.2-.5-.5v-13.4c0-.3.2-.5.5-.5h16.3c.3,0,.5.2.5.5v13.4c0,.3-.2.5-.5.5ZM298.4,45.7h15.3v-12.4h-15.3v12.4Z" style="fill:#005175;"/><path d="M432,78.7h-57.1c-.3,0-.5-.2-.5-.5V21.5c0-.2,0-.3.2-.4l28.6-17.6c.2-.1.4-.1.5,0l28.6,17.4c.2,0,.3.3.3.4v56.9c0,.3-.2.5-.5.5ZM375.4,77.6h56.1V21.6l-28-17.1-28,17.3v55.9ZM425.4,68.5h-16.3c-.3,0-.5-.2-.5-.5v-13.4c0-.3.2-.5.5-.5h16.3c.3,0,.5.2.5.5v13.4c0,.3-.2.5-.5.5ZM409.6,67.5h15.3v-12.4h-15.3v12.4ZM398.8,68.5h-16.3c-.3,0-.5-.2-.5-.5v-13.4c0-.3.2-.5.5-.5h16.3c.3,0,.5.2.5.5v13.4c0,.3-.2.5-.5.5ZM383,67.5h15.3v-12.4h-15.3v12.4ZM425.4,46.8h-16.3c-.3,0-.5-.2-.5-.5v-13.4c0-.3.2-.5.5-.5h16.3c.3,0,.5.2.5.5v13.4c0,.3-.2.5-.5.5ZM409.6,45.7h15.3v-12.4h-15.3v12.4ZM398.8,46.8h-16.3c-.3,0-.5-.2-.5-.5v-13.4c0-.3.2-.5.5-.5h16.3c.3,0,.5.2.5.5v13.4c0,.3-.2.5-.5.5ZM383,45.7h15.3v-12.4h-15.3v12.4Z" style="fill:#005175;"/><rect x="347.4" y="39.1" width="27.5" height="8.1" style="fill:#8eaf9f;"/><path d="M374.9,47.7h-27.5c-.3,0-.5-.2-.5-.5v-8.1c0-.3.2-.5.5-.5h27.5c.3,0,.5.2.5.5v8.1c0,.3-.2.5-.5.5ZM348,46.6h26.4v-7h-26.4v7Z" style="fill:#005175;"/><rect x="372.3" y="78.2" width="62.2" height="3.9" style="fill:#fff;"/><path d="M434.6,82.6h-62.2c-.3,0-.5-.2-.5-.5v-3.9c0-.3.2-.5.5-.5h62.2c.3,0,.5.2.5.5v3.9c0,.3-.2.5-.5.5ZM372.9,81.6h61.2v-2.9h-61.2v2.9Z" style="fill:#005175;"/><rect x="287.4" y="78.2" width="62.5" height="3.9" style="fill:#fff;"/><path d="M349.9,82.6h-62.5c-.3,0-.5-.2-.5-.5v-3.9c0-.3.2-.5.5-.5h62.5c.3,0,.5.2.5.5v3.9c0,.3-.2.5-.5.5ZM287.9,81.6h61.5v-2.9h-61.5v2.9Z" style="fill:#005175;"/><polygon points="324.5 25.6 313.5 25.6 313.5 16.9 319 13.3 324.5 16.9 324.5 25.6" style="fill:#8eaf9f;"/><path d="M324.5,26.1h-11.1c-.3,0-.5-.2-.5-.5v-8.7c0-.2,0-.3.2-.4l5.5-3.6c.2-.1.4-.1.6,0l5.5,3.6c.1,0,.2.3.2.4v8.7c0,.3-.2.5-.5.5ZM314,25.1h10v-7.9l-5-3.2-5,3.2v7.9Z" style="fill:#005175;"/><polygon points="409.1 25.6 398.1 25.6 398.1 16.9 403.6 13.3 409.1 16.9 409.1 25.6" style="fill:#8eaf9f;"/><path d="M409.1,26.1h-11.1c-.3,0-.5-.2-.5-.5v-8.7c0-.2,0-.3.2-.4l5.5-3.6c.2-.1.4-.1.6,0l5.5,3.6c.1,0,.2.3.2.4v8.7c0,.3-.2.5-.5.5ZM398.6,25.1h10v-7.9l-5-3.2-5,3.2v7.9Z" style="fill:#005175;"/></g></g></svg>