<?xml version="1.0" encoding="UTF-8"?><svg id="b" xmlns="http://www.w3.org/2000/svg" xmlns:xlink="http://www.w3.org/1999/xlink" viewBox="0 0 884.1 328.1"><defs><clipPath id="e"><rect x="251.6" y="98.5" width="56.9" height="15.6" style="fill:none;"/></clipPath><clipPath id="f"><rect x="362" y="98.5" width="56.9" height="15.6" style="fill:none;"/></clipPath></defs><g id="c"><g id="d"><path d="M0,167v143.9c137.8-15.7,270.4-22.2,380.9-22.2s121.2,1.6,179.4,4.7c3.3.2,6.6.3,9.9.5,112.6,6.3,218.4,18,313.9,34.2v-58.4C416.1-109,22.5,147.2,0,167Z" style="fill:#a3d0b8;"/><rect x="200" y="83.3" width="1.1" height="11.3" style="fill:#005175;"/><polygon points="214.5 89.1 186.6 89.1 191.5 78.8 189.3 78.8 194.2 68.6 191.4 68.6 196 58.9 193.5 58.9 200.5 44.2 207.6 58.9 205.1 58.9 209.7 68.6 206.9 68.6 211.7 78.8 209.6 78.8 214.5 89.1" style="fill:#8fa297;"/><path d="M214.5,89.6h-27.9c-.2,0-.4,0-.5-.3-.1-.2-.1-.4,0-.5l4.5-9.5h-1.2c-.2,0-.4,0-.5-.3-.1-.2-.1-.4,0-.5l4.5-9.4h-1.9c-.2,0-.4,0-.5-.3-.1-.2-.1-.4,0-.5l4.2-8.9h-1.5c-.2,0-.4,0-.5-.3-.1-.2-.1-.4,0-.5l7-14.8c.2-.4.8-.4,1,0l7,14.8c0,.2,0,.4,0,.5s-.3.3-.5.3h-1.5l4.2,8.9c0,.2,0,.4,0,.5-.1.2-.3.3-.5.3h-1.9l4.5,9.4c0,.2,0,.4,0,.5-.1.2-.3.3-.5.3h-1.2l4.5,9.5c0,.2,0,.4,0,.5s-.3.3-.5.3ZM187.5,88.5h26.2l-4.5-9.5c0-.2,0-.4,0-.5s.3-.3.5-.3h1.2l-4.5-9.4c0-.2,0-.4,0-.5s.3-.3.5-.3h1.9l-4.2-8.9c0-.2,0-.4,0-.5.1-.2.3-.3.5-.3h1.5l-6.1-12.9-6.1,12.9h1.5c.2,0,.4,0,.5.3.1.2.1.4,0,.5l-4.2,8.9h1.9c.2,0,.4,0,.5.3.1.2.1.4,0,.5l-4.5,9.4h1.2c.2,0,.4,0,.5.3.1.2.1.4,0,.5l-4.5,9.5Z" style="fill:#005175;"/><path d="M572.3,108.9l3.2.3c.6,0,1.1-.4,1.2-1l2.1-22.1c0-.6-.4-1.1-1-1.2l-31.6-3.1c-5.9-.6-12.7,10.5-12.7,10.5,0,0-4.4,1.6-4.7,4.3l-.8,7.9,6.3.6" style="fill:#9dc6c8;"/><path d="M528,105.2s0,0,0,0l6.3.6c.3,0,.6-.2.6-.5s-.2-.6-.5-.6l-5.8-.6.7-7.3c.2-1.9,3-3.4,4.2-3.8.2,0,.3-.2.6-.6,4.5-6.7,8.8-10.2,11.9-9.8l31.6,3.1c.3,0,.5.3.5.6l-2.1,22.1c0,.3-.3.5-.6.5l-3.2-.3c-.3,0-.6.2-.6.5s.2.6.5.6l3.2.3c.9,0,1.7-.6,1.8-1.4l2.1-22.1c0-.9-.6-1.7-1.4-1.8l-31.6-3.1c-3.6-.4-8.1,3.2-12.9,10.3,0,0-.1.2-.2.2-.8.3-4.6,2-4.9,4.7l-.8,7.9c0,.1,0,.3.1.4,0,0,.2.2.3.2Z" style="fill:#005175;"/><path d="M533.4,93s0,0,0,0l8.4.8c1.8.2,3.2-.6,3.9-2.1l2.5-5.9c.1-.3,0-.6-.3-.7-.3-.1-.6,0-.7.3l-2.5,5.9c-.6,1.4-1.9,1.6-2.8,1.5l-8.4-.8c-.3,0-.6.2-.6.5,0,.3.2.5.4.6Z" style="fill:#005175;"/><polygon points="558 92.7 558.4 88.4 562.6 88.9 562.2 93.1 566.4 93.5 566 97.7 561.8 97.3 561.4 101.5 557.1 101.1 557.5 96.9 553.3 96.5 553.7 92.2 558 92.7" style="fill:#fff;"/><path d="M556.9,97.4l-4.2-.4.5-5.3,4.2.4.4-4.2,5.3.5-.4,4.2,4.2.4-.5,5.3-4.2-.4-.4,4.2-5.3-.5.4-4.2ZM561.3,96.7l4.2.4.3-3.1-4.2-.4.4-4.2-3.1-.3-.4,4.2-4.2-.4-.3,3.1,4.2.4-.4,4.2,3.1.3.4-4.2Z" style="fill:#005175;"/><path d="M552.8,80.5v-1.1c.2-.6-.3-1.1-.8-1.2l-2.1-.2c-.6,0-1.1.4-1.2,1v1.1" style="fill:#fff;"/><path d="M548,80h1.1c0,.1.1-.9.1-.9,0-.1,0-.3.2-.3.1,0,.2-.1.4-.1l2.1.2c.3,0,.5.3.5.6v1.1c-.1,0,1,.1,1,.1v-1.1c.1-.4,0-.8-.3-1.2-.3-.3-.7-.5-1.1-.6l-2.1-.2c-.9,0-1.7.6-1.8,1.4v1.1Z" style="fill:#005175;"/><line x1="551.3" y1="73.9" x2="551.7" y2="69.7" style="fill:#fff;"/><path d="M551.2,74.5s0,0,0,0c.3,0,.6-.2.6-.5l.4-4.2c0-.3-.2-.6-.5-.6-.3,0-.6.2-.6.5l-.4,4.2c0,.3.2.5.4.6Z" style="fill:#005175;"/><line x1="555.4" y1="75.4" x2="558.8" y2="72.6" style="fill:#fff;"/><path d="M555.3,75.9c.2,0,.3,0,.5-.1l3.5-2.9c.2-.2.3-.5,0-.8-.2-.2-.5-.3-.8,0l-3.5,2.9c-.2.2-.3.5,0,.8,0,.1.2.2.3.2Z" style="fill:#005175;"/><line x1="547" y1="74.6" x2="544.1" y2="71.1" style="fill:#fff;"/><path d="M546.9,75.1c.2,0,.3,0,.5-.1.2-.2.3-.5,0-.8l-2.9-3.5c-.2-.2-.5-.3-.8,0-.2.2-.3.5,0,.8l2.9,3.5c0,.1.2.2.3.2Z" style="fill:#005175;"/><line x1="545.1" y1="77.6" x2="541.4" y2="77.2" style="fill:#fff;"/><path d="M541.3,77.8s0,0,0,0l3.7.4c.3,0,.6-.2.6-.5,0-.3-.2-.6-.5-.6l-3.7-.4c-.3,0-.6.2-.6.5,0,.3.2.5.4.6Z" style="fill:#005175;"/><line x1="560.3" y1="79.1" x2="556.7" y2="78.7" style="fill:#fff;"/><path d="M556.6,79.3s0,0,0,0l3.7.4c.3,0,.6-.2.6-.5s-.2-.6-.5-.6l-3.7-.4c-.3,0-.6.2-.6.5,0,.3.2.5.4.6Z" style="fill:#005175;"/><path d="M534.4,105.3c-.2,2.3,1.5,4.4,3.8,4.6,2.3.2,4.4-1.5,4.6-3.8s-1.5-4.4-3.8-4.6-4.4,1.5-4.6,3.8Z" style="fill:#fff;"/><path d="M533.9,105.2h0c.1-1.3.7-2.4,1.7-3.2,1-.8,2.2-1.2,3.5-1.1,2.6.3,4.6,2.6,4.3,5.2-.1,1.3-.7,2.4-1.7,3.2-1,.8-2.2,1.2-3.5,1.1-.2,0-.3,0-.5,0-2.4-.5-4-2.7-3.8-5.1ZM539,102c-1,0-1.9.2-2.7.8-.8.6-1.2,1.5-1.3,2.5-.2,2,1.3,3.8,3.3,4,1,0,1.9-.2,2.7-.8.8-.6,1.2-1.5,1.3-2.5.2-1.9-1.1-3.6-2.9-4s-.3,0-.4,0Z" style="fill:#005175;"/><path d="M563.9,108.1c-.2,2.3,1.5,4.4,3.8,4.6s4.4-1.5,4.6-3.8-1.5-4.4-3.8-4.6-4.4,1.5-4.6,3.8Z" style="fill:#fff;"/><path d="M564.4,111.6c-.8-1-1.2-2.2-1.1-3.5.1-1.3.7-2.4,1.7-3.2,1-.8,2.2-1.2,3.5-1.1,1.3.1,2.4.7,3.2,1.7.8,1,1.2,2.2,1.1,3.5-.1,1.3-.7,2.4-1.7,3.2-1,.8-2.2,1.2-3.5,1.1-.2,0-.3,0-.5,0-1.1-.2-2-.8-2.7-1.6ZM568.5,104.9c-1,0-1.9.2-2.7.8-.8.6-1.2,1.5-1.3,2.5h0c0,1,.2,1.9.8,2.7.6.8,1.5,1.2,2.5,1.3,1,0,1.9-.2,2.7-.8.8-.6,1.2-1.5,1.3-2.5,0-1-.2-1.9-.8-2.7-.5-.7-1.3-1.1-2.1-1.3s-.3,0-.4,0Z" style="fill:#005175;"/><line x1="563.9" y1="108.1" x2="542.8" y2="106.1" style="fill:#fff;"/><rect x="552.8" y="96.5" width="1.1" height="21.1" transform="translate(393 647.4) rotate(-84.4)" style="fill:#005175;"/><path d="M156.4,114.6c-.3,0-.6-.2-.6-.6v-12.9c0-.6-.5-1.1-1.1-1.1h-1.6c-.6,0-1.1.5-1.1,1.1v1.6c0,.3-.2.6-.6.6s-.6-.2-.6-.6v-1.6c0-1.2,1-2.2,2.2-2.2h1.6c1.2,0,2.2,1,2.2,2.2v12.9c0,.3-.2.6-.6.6Z" style="fill:#005175;"/><path d="M152.4,109h-2.4c-.7,0-1.4-.6-1.4-1.4v-4c0-.7.6-1.4,1.4-1.4h2.4c.7,0,1.4.6,1.4,1.4v4c0,.7-.6,1.4-1.4,1.4ZM150,103.4c-.1,0-.3.1-.3.3v4c0,.1.1.3.3.3h2.4c.1,0,.3-.1.3-.3v-4c0-.1-.1-.3-.3-.3h-2.4Z" style="fill:#005175;"/><path d="M151.6,111.4c-.3,0-.6-.2-.6-.6v-2.4c0-.3.2-.6.6-.6s.6.2.6.6v2.4c0,.3-.2.6-.6.6Z" style="fill:#005175;"/><path d="M152.4,121.8c-.3,0-.6-.2-.6-.6v-4.8c0-.3.2-.6.6-.6s.6.2.6.6v4.8c0,.3-.2.6-.6.6Z" style="fill:#005175;"/><path d="M142.4,108.2c-1.9,0-3.4-1.4-3.4-3.3v-.9c0-1.9,1.4-3.3,3.4-3.3s3.4,1.4,3.4,3.3v.9c0,1.9-1.4,3.3-3.4,3.3ZM142.4,101.8c-1.3,0-2.3.9-2.3,2.2v.9c0,1.3,1,2.2,2.3,2.2s2.3-.9,2.3-2.2v-.9c0-1.3-.9-2.2-2.3-2.2Z" style="fill:#005175;"/><path d="M136.4,130.7c-.3,0-.6-.2-.6-.6v-4c0-.3.2-.6.6-.6s.6.2.6.6v4c0,.3-.2.6-.6.6Z" style="fill:#005175;"/><path d="M136.4,121.8c-.3,0-.6-.2-.6-.6v-11.2c0-.3.2-.6.6-.6s.6.2.6.6v11.2c0,.3-.2.6-.6.6Z" style="fill:#005175;"/><path d="M173.3,126.7h-20.9c-.3,0-.6-.2-.6-.6s.2-.6.6-.6h20.9c.3,0,.6.2.6.6s-.2.6-.6.6Z" style="fill:#005175;"/><rect x="136.4" y="121.3" width="16.1" height="4.8" style="fill:#9dc6c8;"/><path d="M152.4,126.7h-16.1c-.3,0-.6-.2-.6-.6v-4.8c0-.3.2-.6.6-.6h16.1c.3,0,.6.2.6.6v4.8c0,.3-.2.6-.6.6ZM136.9,125.6h15v-3.7h-15v3.7Z" style="fill:#005175;"/><path d="M173.3,130.7c-.3,0-.6-.2-.6-.6v-10.4c0-1.5-1.2-2.7-2.7-2.7h-21.7c-.2,0-.3,0-.4-.2l-4-4.8c-.6-.6-1.7-.8-2.7-.4-.4.1-1.2.6-1.2,1.7v1.6c0,.3-.2.6-.6.6s-.6-.2-.6-.6v-1.6c0-1.2.7-2.2,1.9-2.7,1.3-.6,2.9-.3,3.9.7l3.9,4.7h21.4c2.1,0,3.8,1.7,3.8,3.8v10.4c0,.3-.2.6-.6.6Z" style="fill:#005175;"/><rect x="149.2" y="102.8" width="4" height="5.6" rx="1.2" ry="1.2" transform="translate(302.5 211.2) rotate(180)" style="fill:#fff;"/><path d="M152.4,108.8h-2.4c-.7,0-1.2-.5-1.2-1.2v-4c0-.7.5-1.2,1.2-1.2h2.4c.7,0,1.2.5,1.2,1.2v4c0,.7-.5,1.2-1.2,1.2ZM150,103.2c-.2,0-.4.2-.4.4v4c0,.2.2.4.4.4h2.4c.2,0,.4-.2.4-.4v-4c0-.2-.2-.4-.4-.4h-2.4Z" style="fill:#005175;"/><path d="M151.6,111.3c-.2,0-.4-.2-.4-.4v-2.4c0-.2.2-.4.4-.4s.4.2.4.4v2.4c0,.2-.2.4-.4.4Z" style="fill:#005175;"/><path d="M142.4,107.6c-1.7,0-2.8-1.2-2.8-2.8v-.9c0-1.5,1.1-2.8,2.8-2.8s2.8,1.2,2.8,2.8v.9c0,1.5-1.1,2.8-2.8,2.8Z" style="fill:#fff;"/><path d="M142.4,108c-1.8,0-3.2-1.4-3.2-3.2v-.9c0-1.8,1.4-3.2,3.2-3.2s3.2,1.4,3.2,3.2v.9c0,1.8-1.4,3.2-3.2,3.2ZM142.4,101.6c-1.4,0-2.4,1-2.4,2.3v.9c0,1.4,1,2.3,2.4,2.3s2.4-1,2.4-2.3v-.9c0-1.4-1-2.3-2.4-2.3Z" style="fill:#005175;"/><path d="M173.3,119.7v6.4h-20.9v-9.6h17.7c1.8,0,3.2,1.4,3.2,3.2Z" style="fill:#fff;"/><path d="M173.3,126.5h-20.9c-.2,0-.4-.2-.4-.4v-9.6c0-.2.2-.4.4-.4h17.7c2,0,3.6,1.6,3.6,3.6v6.4c0,.2-.2.4-.4.4ZM152.8,125.7h20.1v-6c0-1.5-1.3-2.8-2.8-2.8h-17.3v8.8Z" style="fill:#005175;"/><polygon points="395.9 69.6 275 69.6 251.1 73.4 419.7 73.4 395.9 69.6" style="fill:#9dc6c8;"/><path d="M419.7,73.9h-168.6c-.3,0-.5-.2-.5-.5,0-.3.2-.5.4-.5l23.9-3.8s0,0,0,0h120.9s0,0,0,0l23.9,3.8c.3,0,.4.3.4.5,0,.3-.2.5-.5.5ZM257.5,72.9h155.9l-17.6-2.8h-120.8l-17.6,2.8Z" style="fill:#005175;"/><polygon points="398.9 89.3 271.6 89.3 246.5 93.1 424 93.1 398.9 89.3" style="fill:#9dc6c8;"/><path d="M424,93.7h-177.4c-.3,0-.5-.2-.5-.5s.2-.5.4-.5l25.1-3.8s0,0,0,0h127.2s0,0,0,0l25.1,3.8c.3,0,.5.3.4.5,0,.3-.2.5-.5.5ZM253.4,92.6h163.8l-18.3-2.8h-127.1l-18.3,2.8Z" style="fill:#005175;"/><polygon points="397.5 110.3 273.1 110.3 248.6 114.1 422 114.1 397.5 110.3" style="fill:#9dc6c8;"/><path d="M422,114.6h-173.5c-.3,0-.5-.2-.5-.5,0-.3.2-.5.4-.5l24.5-3.8s0,0,0,0h124.4s0,0,0,0l24.5,3.8c.3,0,.4.3.4.5,0,.3-.2.5-.5.5ZM255.2,113.6h160.3l-18-2.8h-124.3l-18,2.8Z" style="fill:#005175;"/><rect x="246.9" y="93.2" width="62" height="5.3" style="fill:#fff;"/><path d="M308.8,99h-62c-.3,0-.5-.2-.5-.5v-5.3c0-.3.2-.5.5-.5h62c.3,0,.5.2.5.5v5.3c0,.3-.2.5-.5.5ZM247.4,98h61v-4.3h-61v4.3Z" style="fill:#005175;"/><rect x="362" y="93.2" width="62" height="5.3" style="fill:#fff;"/><path d="M424,99h-62c-.3,0-.5-.2-.5-.5v-5.3c0-.3.2-.5.5-.5h62c.3,0,.5.2.5.5v5.3c0,.3-.2.5-.5.5ZM362.5,98h60.9v-4.3h-60.9v4.3Z" style="fill:#005175;"/><rect x="248.8" y="114.1" width="60" height="4.2" style="fill:#fff;"/><path d="M308.8,118.8h-60c-.3,0-.5-.2-.5-.5v-4.2c0-.3.2-.5.5-.5h60c.3,0,.5.2.5.5v4.2c0,.3-.2.5-.5.5ZM249.3,117.8h59v-3.2h-59v3.2Z" style="fill:#005175;"/><rect x="362" y="114.1" width="60" height="4.2" style="fill:#fff;"/><path d="M422,118.8h-60c-.3,0-.5-.2-.5-.5v-4.2c0-.3.2-.5.5-.5h60c.3,0,.5.2.5.5v4.2c0,.3-.2.5-.5.5ZM362.5,117.8h59v-3.2h-59v3.2Z" style="fill:#005175;"/><rect x="251.9" y="98.5" width="56.9" height="15.6" style="fill:#9dc6c8;"/><path d="M308.8,114.6h-56.9c-.3,0-.5-.2-.5-.5v-15.6c0-.3.2-.5.5-.5h56.9c.3,0,.5.2.5.5v15.6c0,.3-.2.5-.5.5ZM252.4,113.6h55.9v-14.6h-55.9v14.6Z" style="fill:#005175;"/><g style="clip-path:url(#e);"><rect x="290.7" y="107.6" width="26.3" height="1" transform="translate(12.5 246.5) rotate(-45)" style="fill:#fff;"/><rect x="288.8" y="106.4" width="26.3" height="1" transform="translate(12.8 244.8) rotate(-45)" style="fill:#fff;"/><rect x="265.5" y="97" width="26.3" height="1" transform="translate(12.7 225.6) rotate(-45)" style="fill:#fff;"/><rect x="267.8" y="107" width="26.3" height="1" transform="translate(6.3 230.2) rotate(-45)" style="fill:#fff;"/><rect x="268.4" y="107.3" width="26.3" height="1" transform="translate(6.2 230.7) rotate(-45)" style="fill:#fff;"/></g><rect x="362" y="98.5" width="56.9" height="15.6" style="fill:#9dc6c8;"/><path d="M418.9,114.6h-56.9c-.3,0-.5-.2-.5-.5v-15.6c0-.3.2-.5.5-.5h56.9c.3,0,.5.2.5.5v15.6c0,.3-.2.5-.5.5ZM362.5,113.6h55.9v-14.6h-55.9v14.6Z" style="fill:#005175;"/><g style="clip-path:url(#f);"><rect x="401.1" y="107.6" width="26.3" height="1" transform="translate(44.9 324.6) rotate(-45)" style="fill:#fff;"/><rect x="399.2" y="106.4" width="26.3" height="1" transform="translate(45.2 322.9) rotate(-45)" style="fill:#fff;"/><rect x="354.8" y="103.5" width="26.3" height="1" transform="translate(34.3 290.6) rotate(-45)" style="fill:#fff;"/><rect x="352.9" y="102.3" width="26.3" height="1" transform="translate(34.5 289) rotate(-45)" style="fill:#fff;"/><rect x="378.2" y="107" width="26.3" height="1" transform="translate(38.6 308.3) rotate(-45)" style="fill:#fff;"/><rect x="378.8" y="107.3" width="26.3" height="1" transform="translate(38.6 308.8) rotate(-45)" style="fill:#fff;"/><rect x="376.4" y="105.9" width="26.3" height="1" transform="translate(38.9 306.6) rotate(-45)" style="fill:#fff;"/></g><polygon points="305.9 81.5 305.9 84.4 308.8 84.4 308.8 93.2 251.9 93.2 251.9 77.1 308.8 77.1 308.8 81.5 305.9 81.5" style="fill:#fff;"/><path d="M308.8,93.7h-56.9c-.3,0-.5-.2-.5-.5v-16.1c0-.3.2-.5.5-.5h56.9c.3,0,.5.2.5.5v4.4c0,.3-.2.5-.5.5h-2.5v1.9h2.5c.3,0,.5.2.5.5v8.8c0,.3-.2.5-.5.5ZM252.4,92.7h55.9v-7.8h-2.5c-.3,0-.5-.2-.5-.5v-2.9c0-.3.2-.5.5-.5h2.5v-3.4h-55.9v15.1Z" style="fill:#005175;"/><polygon points="418.9 77.1 418.9 93.2 362 93.2 362 84.4 364.3 84.4 364.3 81.5 362 81.5 362 77.1 418.9 77.1" style="fill:#fff;"/><path d="M418.9,93.7h-56.9c-.3,0-.5-.2-.5-.5v-8.8c0-.3.2-.5.5-.5h1.8v-1.9h-1.8c-.3,0-.5-.2-.5-.5v-4.4c0-.3.2-.5.5-.5h56.9c.3,0,.5.2.5.5v16.1c0,.3-.2.5-.5.5ZM362.5,92.7h55.9v-15.1h-55.9v3.4h1.8c.3,0,.5.2.5.5v2.9c0,.3-.2.5-.5.5h-1.8v7.8Z" style="fill:#005175;"/><polygon points="305.9 51.7 305.9 54.6 308.8 54.6 308.8 61.5 305.9 61.5 305.9 64.4 308.8 64.4 308.8 71.3 305.9 71.3 305.9 73.9 273 73.9 273 50.4 308.8 50.4 308.8 51.7 305.9 51.7" style="fill:#fff;"/><path d="M305.9,74.4h-32.9c-.3,0-.5-.2-.5-.5v-23.5c0-.3.2-.5.5-.5h35.9c.3,0,.5.2.5.5v1.3c0,.3-.2.5-.5.5h-2.5v1.9h2.5c.3,0,.5.2.5.5v6.9c0,.3-.2.5-.5.5h-2.5v1.9h2.5c.3,0,.5.2.5.5v6.9c0,.3-.2.5-.5.5h-2.5v2.1c0,.3-.2.5-.5.5ZM273.5,73.4h31.9v-2.1c0-.3.2-.5.5-.5h2.5v-5.9h-2.5c-.3,0-.5-.2-.5-.5v-2.9c0-.3.2-.5.5-.5h2.5v-5.9h-2.5c-.3,0-.5-.2-.5-.5v-2.9c0-.3.2-.5.5-.5h2.5v-.3h-34.9v22.5Z" style="fill:#005175;"/><polygon points="380.2 46.6 290.7 46.6 273 50.4 397.9 50.4 380.2 46.6" style="fill:#9dc6c8;"/><path d="M397.9,50.9h-124.9c-.3,0-.5-.2-.5-.4s.1-.5.4-.5l17.7-3.8s0,0,.1,0h89.6s0,0,.1,0l17.7,3.8c.3,0,.4.3.4.5,0,.3-.2.4-.5.4ZM277.7,49.9h115.5l-13-2.8h-89.4l-13,2.8Z" style="fill:#005175;"/><polygon points="356 .5 314.1 .5 305.9 2.4 364.3 2.4 356 .5" style="fill:#9dc6c8;"/><path d="M364.3,2.9h-58.4c-.3,0-.5-.2-.5-.4,0-.3.1-.5.4-.5L314,0s0,0,.1,0h41.9s0,0,.1,0l8.3,1.9c.2,0,.4.3.4.5,0,.3-.2.4-.5.4ZM310.3,1.9h49.6l-3.9-.9h-41.7l-3.9.9Z" style="fill:#005175;"/><polygon points="397.9 50.4 397.9 73.9 364.3 73.9 364.3 71.3 362 71.3 362 64.4 364.3 64.4 364.3 61.5 362 61.5 362 54.6 364.3 54.6 364.3 51.7 362 51.7 362 50.4 397.9 50.4" style="fill:#fff;"/><path d="M397.9,74.4h-33.6c-.3,0-.5-.2-.5-.5v-2.1h-1.8c-.3,0-.5-.2-.5-.5v-6.9c0-.3.2-.5.5-.5h1.8v-1.9h-1.8c-.3,0-.5-.2-.5-.5v-6.9c0-.3.2-.5.5-.5h1.8v-1.9h-1.8c-.3,0-.5-.2-.5-.5v-1.3c0-.3.2-.5.5-.5h35.8c.3,0,.5.2.5.5v23.5c0,.3-.2.5-.5.5ZM364.8,73.4h32.6v-22.5h-34.8v.3h1.8c.3,0,.5.2.5.5v2.9c0,.3-.2.5-.5.5h-1.8v5.9h1.8c.3,0,.5.2.5.5v2.9c0,.3-.2.5-.5.5h-1.8v5.9h1.8c.3,0,.5.2.5.5v2.1Z" style="fill:#005175;"/><rect x="308.8" y="84.4" width="53.2" height="33.9" style="fill:#fff;"/><path d="M362,118.8h-53.2c-.3,0-.5-.2-.5-.5v-33.9c0-.3.2-.5.5-.5h53.2c.3,0,.5.2.5.5v33.9c0,.3-.2.5-.5.5ZM309.3,117.8h52.2v-32.9h-52.2v32.9Z" style="fill:#005175;"/><rect x="308.8" y="72.6" width="53.2" height="9" style="fill:#fff;"/><path d="M362,82h-53.2c-.3,0-.5-.2-.5-.5v-9c0-.3.2-.5.5-.5h53.2c.3,0,.5.2.5.5v9c0,.3-.2.5-.5.5ZM309.3,81h52.2v-8h-52.2v8Z" style="fill:#005175;"/><rect x="308.8" y="64.4" width="53.2" height="6.9" style="fill:#fff;"/><path d="M362,71.8h-53.2c-.3,0-.5-.2-.5-.5v-6.9c0-.3.2-.5.5-.5h53.2c.3,0,.5.2.5.5v6.9c0,.3-.2.5-.5.5ZM309.3,70.8h52.2v-5.9h-52.2v5.9Z" style="fill:#005175;"/><rect x="308.8" y="54.6" width="53.2" height="6.9" style="fill:#fff;"/><path d="M362,62h-53.2c-.3,0-.5-.2-.5-.5v-6.9c0-.3.2-.5.5-.5h53.2c.3,0,.5.2.5.5v6.9c0,.3-.2.5-.5.5ZM309.3,61h52.2v-5.9h-52.2v5.9Z" style="fill:#005175;"/><rect x="308.8" y="44.3" width="53.2" height="7.4" style="fill:#fff;"/><path d="M362,52.2h-53.2c-.3,0-.5-.2-.5-.5v-7.4c0-.3.2-.5.5-.5h53.2c.3,0,.5.2.5.5v7.4c0,.3-.2.5-.5.5ZM309.3,51.2h52.2v-6.4h-52.2v6.4Z" style="fill:#005175;"/><rect x="308.8" y="34.6" width="53.2" height="6.9" style="fill:#fff;"/><path d="M362,42h-53.2c-.3,0-.5-.2-.5-.5v-6.9c0-.3.2-.5.5-.5h53.2c.3,0,.5.2.5.5v6.9c0,.3-.2.5-.5.5ZM309.3,41h52.2v-5.9h-52.2v5.9Z" style="fill:#005175;"/><rect x="308.8" y="7.3" width="53.2" height="24.4" style="fill:#fff;"/><path d="M362,32.2h-53.2c-.3,0-.5-.2-.5-.5V7.3c0-.3.2-.5.5-.5h53.2c.3,0,.5.2.5.5v24.4c0,.3-.2.5-.5.5ZM309.3,31.2h52.2V7.8h-52.2v23.4Z" style="fill:#005175;"/><rect x="251.1" y="73.9" width="57.7" height="3.2" style="fill:#fff;"/><path d="M308.8,77.6h-57.7c-.3,0-.5-.2-.5-.5v-3.2c0-.3.2-.5.5-.5h57.7c.3,0,.5.2.5.5v3.2c0,.3-.2.5-.5.5ZM251.6,76.6h56.7v-2.2h-56.7v2.2Z" style="fill:#005175;"/><rect x="304.7" y="51" width="3.7" height="41.7" style="fill:#9dc6c8;"/><rect x="362" y="73.9" width="57.7" height="3.2" style="fill:#fff;"/><path d="M419.7,77.6h-57.7c-.3,0-.5-.2-.5-.5v-3.2c0-.3.2-.5.5-.5h57.7c.3,0,.5.2.5.5v3.2c0,.3-.2.5-.5.5ZM362.5,76.6h56.7v-2.2h-56.7v2.2Z" style="fill:#005175;"/><rect x="268.6" y="98.5" width="1.8" height="15.6" style="fill:#fff;"/><path d="M270.4,114.6h-1.8c-.3,0-.5-.2-.5-.5v-15.6c0-.3.2-.5.5-.5h1.8c.3,0,.5.2.5.5v15.6c0,.3-.2.5-.5.5ZM269.1,113.6h.8v-14.6h-.8v14.6Z" style="fill:#005175;"/><rect x="290" y="98.5" width="1.8" height="15.6" style="fill:#fff;"/><path d="M291.8,114.6h-1.8c-.3,0-.5-.2-.5-.5v-15.6c0-.3.2-.5.5-.5h1.8c.3,0,.5.2.5.5v15.6c0,.3-.2.5-.5.5ZM290.5,113.6h.8v-14.6h-.8v14.6Z" style="fill:#005175;"/><rect x="378.1" y="98.5" width="1.8" height="15.6" style="fill:#fff;"/><path d="M379.9,114.6h-1.8c-.3,0-.5-.2-.5-.5v-15.6c0-.3.2-.5.5-.5h1.8c.3,0,.5.2.5.5v15.6c0,.3-.2.5-.5.5ZM378.6,113.6h.8v-14.6h-.8v14.6Z" style="fill:#005175;"/><rect x="399.6" y="98.5" width="1.8" height="15.6" style="fill:#fff;"/><path d="M401.4,114.6h-1.8c-.3,0-.5-.2-.5-.5v-15.6c0-.3.2-.5.5-.5h1.8c.3,0,.5.2.5.5v15.6c0,.3-.2.5-.5.5ZM400.1,113.6h.8v-14.6h-.8v14.6Z" style="fill:#005175;"/><rect x="265.7" y="79.8" width="5.5" height="5.5" style="fill:#fff;"/><path d="M271.2,85.8h-5.5c-.3,0-.5-.2-.5-.5v-5.5c0-.3.2-.5.5-.5h5.5c.3,0,.5.2.5.5v5.5c0,.3-.2.5-.5.5ZM266.2,84.8h4.5v-4.5h-4.5v4.5Z" style="fill:#005175;"/><rect x="275.9" y="79.8" width="5.5" height="5.5" style="fill:#fff;"/><path d="M281.4,85.8h-5.5c-.3,0-.5-.2-.5-.5v-5.5c0-.3.2-.5.5-.5h5.5c.3,0,.5.2.5.5v5.5c0,.3-.2.5-.5.5ZM276.4,84.8h4.5v-4.5h-4.5v4.5Z" style="fill:#005175;"/><rect x="286.1" y="79.8" width="5.5" height="5.5" style="fill:#fff;"/><path d="M291.6,85.8h-5.5c-.3,0-.5-.2-.5-.5v-5.5c0-.3.2-.5.5-.5h5.5c.3,0,.5.2.5.5v5.5c0,.3-.2.5-.5.5ZM286.6,84.8h4.5v-4.5h-4.5v4.5Z" style="fill:#005175;"/><rect x="277.9" y="56.7" width="5.8" height="4.6" style="fill:#9dc6c8;"/><path d="M283.7,61.8h-5.8c-.3,0-.5-.2-.5-.5v-4.6c0-.3.2-.5.5-.5h5.8c.3,0,.5.2.5.5v4.6c0,.3-.2.5-.5.5ZM278.4,60.8h4.8v-3.6h-4.8v3.6Z" style="fill:#005175;"/><rect x="277.9" y="65.5" width="5.8" height="4.6" style="fill:#9dc6c8;"/><path d="M283.7,70.6h-5.8c-.3,0-.5-.2-.5-.5v-4.6c0-.3.2-.5.5-.5h5.8c.3,0,.5.2.5.5v4.6c0,.3-.2.5-.5.5ZM278.4,69.6h4.8v-3.6h-4.8v3.6Z" style="fill:#005175;"/><rect x="287.6" y="65.5" width="5.8" height="4.6" style="fill:#9dc6c8;"/><path d="M293.5,70.6h-5.8c-.3,0-.5-.2-.5-.5v-4.6c0-.3.2-.5.5-.5h5.8c.3,0,.5.2.5.5v4.6c0,.3-.2.5-.5.5ZM288.1,69.6h4.8v-3.6h-4.8v3.6Z" style="fill:#005175;"/><rect x="297.4" y="65.5" width="5.8" height="4.6" style="fill:#9dc6c8;"/><path d="M303.2,70.6h-5.8c-.3,0-.5-.2-.5-.5v-4.6c0-.3.2-.5.5-.5h5.8c.3,0,.5.2.5.5v4.6c0,.3-.2.5-.5.5ZM297.9,69.6h4.8v-3.6h-4.8v3.6Z" style="fill:#005175;"/><rect x="297.4" y="56.7" width="5.8" height="4.6" style="fill:#9dc6c8;"/><path d="M303.2,61.8h-5.8c-.3,0-.5-.2-.5-.5v-4.6c0-.3.2-.5.5-.5h5.8c.3,0,.5.2.5.5v4.6c0,.3-.2.5-.5.5ZM297.9,60.8h4.8v-3.6h-4.8v3.6Z" style="fill:#005175;"/><rect x="287.6" y="56.7" width="5.8" height="4.6" style="fill:#9dc6c8;"/><path d="M293.5,61.8h-5.8c-.3,0-.5-.2-.5-.5v-4.6c0-.3.2-.5.5-.5h5.8c.3,0,.5.2.5.5v4.6c0,.3-.2.5-.5.5ZM288.1,60.8h4.8v-3.6h-4.8v3.6Z" style="fill:#005175;"/><rect x="296.3" y="79.7" width="5.5" height="5.5" style="fill:#fff;"/><path d="M301.8,85.8h-5.5c-.3,0-.5-.2-.5-.5v-5.5c0-.3.2-.5.5-.5h5.5c.3,0,.5.2.5.5v5.5c0,.3-.2.5-.5.5ZM296.8,84.8h4.5v-4.5h-4.5v4.5Z" style="fill:#005175;"/><rect x="305.9" y="31.7" width="58.4" height="2.9" style="fill:#fff;"/><path d="M364.3,35.1h-58.4c-.3,0-.5-.2-.5-.5v-2.9c0-.3.2-.5.5-.5h58.4c.3,0,.5.2.5.5v2.9c0,.3-.2.5-.5.5ZM306.4,34.1h57.4v-1.9h-57.4v1.9Z" style="fill:#005175;"/><rect x="305.9" y="41.5" width="58.4" height="2.9" style="fill:#fff;"/><path d="M364.3,44.8h-58.4c-.3,0-.5-.2-.5-.5v-2.9c0-.3.2-.5.5-.5h58.4c.3,0,.5.2.5.5v2.9c0,.3-.2.5-.5.5ZM306.4,43.8h57.4v-1.9h-57.4v1.9Z" style="fill:#005175;"/><rect x="305.9" y="51.7" width="58.4" height="2.9" style="fill:#fff;"/><path d="M364.3,55.1h-58.4c-.3,0-.5-.2-.5-.5v-2.9c0-.3.2-.5.5-.5h58.4c.3,0,.5.2.5.5v2.9c0,.3-.2.5-.5.5ZM306.4,54.1h57.4v-1.9h-57.4v1.9Z" style="fill:#005175;"/><rect x="305.9" y="61.5" width="58.4" height="2.9" style="fill:#fff;"/><path d="M364.3,64.9h-58.4c-.3,0-.5-.2-.5-.5v-2.9c0-.3.2-.5.5-.5h58.4c.3,0,.5.2.5.5v2.9c0,.3-.2.5-.5.5ZM306.4,63.9h57.4v-1.9h-57.4v1.9Z" style="fill:#005175;"/><rect x="305.9" y="73.9" width="3" height=".2" style="fill:#fff;"/><rect x="305.4" y="73.4" width="4" height="1.2" rx=".5" ry=".5" style="fill:#005175;"/><rect x="362" y="73.9" width="2.3" height=".2" style="fill:#fff;"/><path d="M362,73.4h2.3c.3,0,.5.2.5.5v.2c0,.3-.2.5-.5.5h-2.3c-.3,0-.5-.2-.5-.5v-.2c0-.3.2-.5.5-.5Z" style="fill:#005175;"/><rect x="305.9" y="81.5" width="58.4" height="2.9" style="fill:#fff;"/><path d="M364.3,84.9h-58.4c-.3,0-.5-.2-.5-.5v-2.9c0-.3.2-.5.5-.5h58.4c.3,0,.5.2.5.5v2.9c0,.3-.2.5-.5.5ZM306.4,83.9h57.4v-1.9h-57.4v1.9Z" style="fill:#005175;"/><rect x="310.9" y="84.4" width="48.7" height="7.7" style="fill:#9dc6c8;"/><path d="M359.6,92.6h-48.7c-.3,0-.5-.2-.5-.5v-7.7c0-.3.2-.5.5-.5h48.7c.3,0,.5.2.5.5v7.7c0,.3-.2.5-.5.5ZM311.4,91.6h47.7v-6.7h-47.7v6.7Z" style="fill:#005175;"/><rect x="310.9" y="74.1" width="48.7" height="7.4" style="fill:#9dc6c8;"/><path d="M359.6,82h-48.7c-.3,0-.5-.2-.5-.5v-7.4c0-.3.2-.5.5-.5h48.7c.3,0,.5.2.5.5v7.4c0,.3-.2.5-.5.5ZM311.4,81h47.7v-6.4h-47.7v6.4Z" style="fill:#005175;"/><rect x="310.9" y="64.4" width="48.7" height="6.9" style="fill:#9dc6c8;"/><path d="M359.6,71.8h-48.7c-.3,0-.5-.2-.5-.5v-6.9c0-.3.2-.5.5-.5h48.7c.3,0,.5.2.5.5v6.9c0,.3-.2.5-.5.5ZM311.4,70.8h47.7v-5.9h-47.7v5.9Z" style="fill:#005175;"/><rect x="310.9" y="54.6" width="48.7" height="6.9" style="fill:#9dc6c8;"/><path d="M359.6,62h-48.7c-.3,0-.5-.2-.5-.5v-6.9c0-.3.2-.5.5-.5h48.7c.3,0,.5.2.5.5v6.9c0,.3-.2.5-.5.5ZM311.4,61h47.7v-5.9h-47.7v5.9Z" style="fill:#005175;"/><rect x="310.9" y="44.3" width="48.7" height="7.4" style="fill:#9dc6c8;"/><path d="M359.6,52.2h-48.7c-.3,0-.5-.2-.5-.5v-7.4c0-.3.2-.5.5-.5h48.7c.3,0,.5.2.5.5v7.4c0,.3-.2.5-.5.5ZM311.4,51.2h47.7v-6.4h-47.7v6.4Z" style="fill:#005175;"/><rect x="310.9" y="34.6" width="48.7" height="6.9" style="fill:#9dc6c8;"/><path d="M359.6,42h-48.7c-.3,0-.5-.2-.5-.5v-6.9c0-.3.2-.5.5-.5h48.7c.3,0,.5.2.5.5v6.9c0,.3-.2.5-.5.5ZM311.4,41h47.7v-5.9h-47.7v5.9Z" style="fill:#005175;"/><rect x="334.4" y="34.6" width="2" height="6.9" style="fill:#fff;"/><path d="M336.4,42h-2c-.3,0-.5-.2-.5-.5v-6.9c0-.3.2-.5.5-.5h2c.3,0,.5.2.5.5v6.9c0,.3-.2.5-.5.5ZM334.9,41h1v-5.9h-1v5.9Z" style="fill:#005175;"/><rect x="334.4" y="44.3" width="2" height="7.4" style="fill:#fff;"/><path d="M336.4,52.2h-2c-.3,0-.5-.2-.5-.5v-7.4c0-.3.2-.5.5-.5h2c.3,0,.5.2.5.5v7.4c0,.3-.2.5-.5.5ZM334.9,51.2h1v-6.4h-1v6.4Z" style="fill:#005175;"/><rect x="334.4" y="54.6" width="2" height="6.9" style="fill:#fff;"/><path d="M336.4,62h-2c-.3,0-.5-.2-.5-.5v-6.9c0-.3.2-.5.5-.5h2c.3,0,.5.2.5.5v6.9c0,.3-.2.5-.5.5ZM334.9,61h1v-5.9h-1v5.9Z" style="fill:#005175;"/><rect x="334.4" y="64.4" width="2" height="6.9" style="fill:#fff;"/><path d="M336.4,71.8h-2c-.3,0-.5-.2-.5-.5v-6.9c0-.3.2-.5.5-.5h2c.3,0,.5.2.5.5v6.9c0,.3-.2.5-.5.5ZM334.9,70.8h1v-5.9h-1v5.9Z" style="fill:#005175;"/><rect x="334.4" y="74.1" width="2" height="7.4" style="fill:#fff;"/><path d="M336.4,82h-2c-.3,0-.5-.2-.5-.5v-7.4c0-.3.2-.5.5-.5h2c.3,0,.5.2.5.5v7.4c0,.3-.2.5-.5.5ZM334.9,81h1v-6.4h-1v6.4Z" style="fill:#005175;"/><rect x="334.4" y="84.4" width="2" height="7.7" style="fill:#fff;"/><path d="M336.4,92.6h-2c-.3,0-.5-.2-.5-.5v-7.7c0-.3.2-.5.5-.5h2c.3,0,.5.2.5.5v7.7c0,.3-.2.5-.5.5ZM334.9,91.6h1v-6.7h-1v6.7Z" style="fill:#005175;"/><rect x="366.4" y="56.7" width="6.1" height="4.6" style="fill:#9dc6c8;"/><path d="M372.5,61.8h-6.1c-.3,0-.5-.2-.5-.5v-4.6c0-.3.2-.5.5-.5h6.1c.3,0,.5.2.5.5v4.6c0,.3-.2.5-.5.5ZM366.9,60.8h5.1v-3.6h-5.1v3.6Z" style="fill:#005175;"/><rect x="366.4" y="65.5" width="6.1" height="4.6" style="fill:#9dc6c8;"/><path d="M372.5,70.6h-6.1c-.3,0-.5-.2-.5-.5v-4.6c0-.3.2-.5.5-.5h6.1c.3,0,.5.2.5.5v4.6c0,.3-.2.5-.5.5ZM366.9,69.6h5.1v-3.6h-5.1v3.6Z" style="fill:#005175;"/><rect x="376.6" y="65.5" width="6.1" height="4.6" style="fill:#9dc6c8;"/><path d="M382.7,70.6h-6.1c-.3,0-.5-.2-.5-.5v-4.6c0-.3.2-.5.5-.5h6.1c.3,0,.5.2.5.5v4.6c0,.3-.2.5-.5.5ZM377.1,69.6h5.1v-3.6h-5.1v3.6Z" style="fill:#005175;"/><rect x="386.8" y="65.5" width="6.1" height="4.6" style="fill:#9dc6c8;"/><path d="M393,70.6h-6.1c-.3,0-.5-.2-.5-.5v-4.6c0-.3.2-.5.5-.5h6.1c.3,0,.5.2.5.5v4.6c0,.3-.2.5-.5.5ZM387.3,69.6h5.1v-3.6h-5.1v3.6Z" style="fill:#005175;"/><rect x="386.8" y="56.7" width="6.1" height="4.6" style="fill:#9dc6c8;"/><path d="M393,61.8h-6.1c-.3,0-.5-.2-.5-.5v-4.6c0-.3.2-.5.5-.5h6.1c.3,0,.5.2.5.5v4.6c0,.3-.2.5-.5.5ZM387.3,60.8h5.1v-3.6h-5.1v3.6Z" style="fill:#005175;"/><rect x="376.6" y="56.7" width="6.1" height="4.6" style="fill:#9dc6c8;"/><path d="M382.7,61.8h-6.1c-.3,0-.5-.2-.5-.5v-4.6c0-.3.2-.5.5-.5h6.1c.3,0,.5.2.5.5v4.6c0,.3-.2.5-.5.5ZM377.1,60.8h5.1v-3.6h-5.1v3.6Z" style="fill:#005175;"/><rect x="265.7" y="79.8" width="5.5" height="5.5" style="fill:#9dc6c8;"/><path d="M271.2,85.8h-5.5c-.3,0-.5-.2-.5-.5v-5.5c0-.3.2-.5.5-.5h5.5c.3,0,.5.2.5.5v5.5c0,.3-.2.5-.5.5ZM266.2,84.8h4.5v-4.5h-4.5v4.5Z" style="fill:#005175;"/><rect x="275.9" y="79.8" width="5.5" height="5.5" style="fill:#9dc6c8;"/><path d="M281.4,85.8h-5.5c-.3,0-.5-.2-.5-.5v-5.5c0-.3.2-.5.5-.5h5.5c.3,0,.5.2.5.5v5.5c0,.3-.2.5-.5.5ZM276.4,84.8h4.5v-4.5h-4.5v4.5Z" style="fill:#005175;"/><rect x="286.1" y="79.8" width="5.5" height="5.5" style="fill:#9dc6c8;"/><path d="M291.6,85.8h-5.5c-.3,0-.5-.2-.5-.5v-5.5c0-.3.2-.5.5-.5h5.5c.3,0,.5.2.5.5v5.5c0,.3-.2.5-.5.5ZM286.6,84.8h4.5v-4.5h-4.5v4.5Z" style="fill:#005175;"/><rect x="296.3" y="79.7" width="5.5" height="5.5" style="fill:#9dc6c8;"/><path d="M301.8,85.8h-5.5c-.3,0-.5-.2-.5-.5v-5.5c0-.3.2-.5.5-.5h5.5c.3,0,.5.2.5.5v5.5c0,.3-.2.5-.5.5ZM296.8,84.8h4.5v-4.5h-4.5v4.5Z" style="fill:#005175;"/><rect x="368.8" y="79.8" width="5.5" height="5.5" style="fill:#fff;"/><path d="M374.3,85.8h-5.5c-.3,0-.5-.2-.5-.5v-5.5c0-.3.2-.5.5-.5h5.5c.3,0,.5.2.5.5v5.5c0,.3-.2.5-.5.5ZM369.3,84.8h4.5v-4.5h-4.5v4.5Z" style="fill:#005175;"/><rect x="379" y="79.8" width="5.5" height="5.5" style="fill:#fff;"/><path d="M384.5,85.8h-5.5c-.3,0-.5-.2-.5-.5v-5.5c0-.3.2-.5.5-.5h5.5c.3,0,.5.2.5.5v5.5c0,.3-.2.5-.5.5ZM379.5,84.8h4.5v-4.5h-4.5v4.5Z" style="fill:#005175;"/><rect x="389.2" y="79.8" width="5.5" height="5.5" style="fill:#fff;"/><path d="M394.7,85.8h-5.5c-.3,0-.5-.2-.5-.5v-5.5c0-.3.2-.5.5-.5h5.5c.3,0,.5.2.5.5v5.5c0,.3-.2.5-.5.5ZM389.7,84.8h4.5v-4.5h-4.5v4.5Z" style="fill:#005175;"/><rect x="399.4" y="79.8" width="5.5" height="5.5" style="fill:#fff;"/><path d="M404.9,85.8h-5.5c-.3,0-.5-.2-.5-.5v-5.5c0-.3.2-.5.5-.5h5.5c.3,0,.5.2.5.5v5.5c0,.3-.2.5-.5.5ZM399.9,84.8h4.5v-4.5h-4.5v4.5Z" style="fill:#005175;"/><rect x="409.6" y="79.7" width="5.5" height="5.5" style="fill:#fff;"/><path d="M415.2,85.8h-5.5c-.3,0-.5-.2-.5-.5v-5.5c0-.3.2-.5.5-.5h5.5c.3,0,.5.2.5.5v5.5c0,.3-.2.5-.5.5ZM410.1,84.8h4.5v-4.5h-4.5v4.5Z" style="fill:#005175;"/><rect x="368.8" y="79.8" width="5.5" height="5.5" style="fill:#9dc6c8;"/><path d="M374.3,85.8h-5.5c-.3,0-.5-.2-.5-.5v-5.5c0-.3.2-.5.5-.5h5.5c.3,0,.5.2.5.5v5.5c0,.3-.2.5-.5.5ZM369.3,84.8h4.5v-4.5h-4.5v4.5Z" style="fill:#005175;"/><rect x="379" y="79.8" width="5.5" height="5.5" style="fill:#9dc6c8;"/><path d="M384.5,85.8h-5.5c-.3,0-.5-.2-.5-.5v-5.5c0-.3.2-.5.5-.5h5.5c.3,0,.5.2.5.5v5.5c0,.3-.2.5-.5.5ZM379.5,84.8h4.5v-4.5h-4.5v4.5Z" style="fill:#005175;"/><rect x="389.2" y="79.8" width="5.5" height="5.5" style="fill:#9dc6c8;"/><path d="M394.7,85.8h-5.5c-.3,0-.5-.2-.5-.5v-5.5c0-.3.2-.5.5-.5h5.5c.3,0,.5.2.5.5v5.5c0,.3-.2.5-.5.5ZM389.7,84.8h4.5v-4.5h-4.5v4.5Z" style="fill:#005175;"/><rect x="399.4" y="79.8" width="5.5" height="5.5" style="fill:#9dc6c8;"/><path d="M404.9,85.8h-5.5c-.3,0-.5-.2-.5-.5v-5.5c0-.3.2-.5.5-.5h5.5c.3,0,.5.2.5.5v5.5c0,.3-.2.5-.5.5ZM399.9,84.8h4.5v-4.5h-4.5v4.5Z" style="fill:#005175;"/><rect x="409.6" y="79.7" width="5.5" height="5.5" style="fill:#9dc6c8;"/><path d="M415.2,85.8h-5.5c-.3,0-.5-.2-.5-.5v-5.5c0-.3.2-.5.5-.5h5.5c.3,0,.5.2.5.5v5.5c0,.3-.2.5-.5.5ZM410.1,84.8h4.5v-4.5h-4.5v4.5Z" style="fill:#005175;"/><rect x="255.4" y="79.8" width="5.5" height="5.5" style="fill:#9dc6c8;"/><path d="M261,85.8h-5.5c-.3,0-.5-.2-.5-.5v-5.5c0-.3.2-.5.5-.5h5.5c.3,0,.5.2.5.5v5.5c0,.3-.2.5-.5.5ZM255.9,84.8h4.5v-4.5h-4.5v4.5Z" style="fill:#005175;"/><rect x="305.9" y="2.4" width="58.4" height="4.9" style="fill:#fff;"/><path d="M364.3,7.8h-58.4c-.3,0-.5-.2-.5-.5V2.4c0-.3.2-.5.5-.5h58.4c.3,0,.5.2.5.5v4.9c0,.3-.2.5-.5.5ZM306.4,6.8h57.4v-3.9h-57.4v3.9Z" style="fill:#005175;"/><rect x="323.9" y="113.8" width="23.1" height="4.2" style="fill:#fff;"/><path d="M347,118.5h-23.1c-.3,0-.5-.2-.5-.5v-4.2c0-.3.2-.5.5-.5h23.1c.3,0,.5.2.5.5v4.2c0,.3-.2.5-.5.5ZM324.4,117.5h22.1v-3.2h-22.1v3.2Z" style="fill:#005175;"/><rect x="327" y="98.2" width="16.9" height="15.6" style="fill:#9dc6c8;"/><path d="M343.9,114.3h-16.9c-.3,0-.5-.2-.5-.5v-15.6c0-.3.2-.5.5-.5h16.9c.3,0,.5.2.5.5v15.6c0,.3-.2.5-.5.5ZM327.5,113.3h15.9v-14.6h-15.9v14.6Z" style="fill:#005175;"/><rect x="346.8" y="98.2" width="4.5" height="19.8" style="fill:#fff;"/><path d="M351.4,118.5h-4.5c-.3,0-.5-.2-.5-.5v-19.8c0-.3.2-.5.5-.5h4.5c.3,0,.5.2.5.5v19.8c0,.3-.2.5-.5.5ZM347.3,117.5h3.5v-18.8h-3.5v18.8Z" style="fill:#005175;"/><rect x="319.5" y="98.2" width="4.5" height="19.8" style="fill:#fff;"/><path d="M324.1,118.5h-4.5c-.3,0-.5-.2-.5-.5v-19.8c0-.3.2-.5.5-.5h4.5c.3,0,.5.2.5.5v19.8c0,.3-.2.5-.5.5ZM320,117.5h3.5v-18.8h-3.5v18.8Z" style="fill:#005175;"/><path d="M335.5,114.3c-.3,0-.5-.2-.5-.5v-15.6c0-.3.2-.5.5-.5s.5.2.5.5v15.6c0,.3-.2.5-.5.5Z" style="fill:#005175;"/><rect x="312.1" y="91.8" width="46.6" height="6.5" style="fill:#fff;"/><path d="M358.8,98.7h-46.6c-.3,0-.5-.2-.5-.5v-6.5c0-.3.2-.5.5-.5h46.6c.3,0,.5.2.5.5v6.5c0,.3-.2.5-.5.5ZM312.6,97.7h45.6v-5.5h-45.6v5.5Z" style="fill:#005175;"/><path d="M308.8,77.6h-57.7c-.3,0-.5-.2-.5-.5v-3.2c0-.3.2-.5.5-.5h57.7c.3,0,.5.2.5.5v3.2c0,.3-.2.5-.5.5ZM251.6,76.6h56.7v-2.2h-56.7v2.2Z" style="fill:#005175;"/><rect x="305.9" y="71.3" width="58.4" height="2.6" style="fill:#fff;"/><path d="M364.3,74.4h-58.4c-.3,0-.5-.2-.5-.5v-2.6c0-.3.2-.5.5-.5h58.4c.3,0,.5.2.5.5v2.6c0,.3-.2.5-.5.5ZM306.4,73.4h57.4v-1.6h-57.4v1.6Z" style="fill:#005175;"/><path d="M308.8,99h-62c-.3,0-.5-.2-.5-.5v-5.3c0-.3.2-.5.5-.5h62c.3,0,.5.2.5.5v5.3c0,.3-.2.5-.5.5ZM247.4,98h61v-4.3h-61v4.3Z" style="fill:#005175;"/><path d="M424,99h-62c-.3,0-.5-.2-.5-.5v-5.3c0-.3.2-.5.5-.5h62c.3,0,.5.2.5.5v5.3c0,.3-.2.5-.5.5ZM362.5,98h60.9v-4.3h-60.9v4.3Z" style="fill:#005175;"/><path d="M337.1,11.2v6.2h-4v-6.2h-4.4v16.7h4.4v-6.6h4v6.6h4.4V11.2h-4.4Z" style="fill:#005175;"/><path d="M419.4,114.5h-56.9c-.3,0-.5-.2-.5-.5v-15.6c0-.3.2-.5.5-.5h56.9c.3,0,.5.2.5.5v15.6c0,.3-.2.5-.5.5ZM363,113.5h55.9v-14.6h-55.9v14.6Z" style="fill:#005175;"/><path d="M308.7,114.5h-56.9c-.3,0-.5-.2-.5-.5v-15.6c0-.3.2-.5.5-.5h56.9c.3,0,.5.2.5.5v15.6c0,.3-.2.5-.5.5ZM252.3,113.5h55.9v-14.6h-55.9v14.6Z" style="fill:#005175;"/><rect x="348.8" y="98.7" width="2.1" height="18.8" style="fill:#9dc6c8;"/><path d="M70.1,126.2c0,6.3-5.1,11.3-11.3,11.3s-11.3-5.1-11.3-11.3,1.9-7.2,4.7-9.2c-.9-1.5-1.4-3.3-1.1-5.3.5-3.4,3.4-6.2,6.8-6.6s8.6,3.1,8.6,7.7-.4,2.9-1.2,4.1c2.9,2.1,4.7,5.4,4.7,9.2Z" style="fill:#8bcc99;"/><path d="M58.8,138.1c-6.5,0-11.9-5.3-11.9-11.9s1.7-7.1,4.6-9.4c-.9-1.6-1.2-3.4-.9-5.2.5-3.7,3.6-6.6,7.3-7,2.4-.3,4.7.5,6.5,2.1,1.8,1.6,2.8,3.8,2.8,6.2s-.3,2.8-1,4c2.9,2.3,4.6,5.7,4.6,9.4,0,6.5-5.3,11.9-11.9,11.9ZM58.8,105.7c-.3,0-.5,0-.8,0-3.2.3-5.9,2.9-6.3,6.1-.2,1.7.1,3.5,1,4.9.2.2,0,.6-.1.7-2.8,2-4.5,5.3-4.5,8.8,0,5.9,4.8,10.8,10.8,10.8s10.8-4.8,10.8-10.8-1.7-6.7-4.5-8.8c-.2-.2-.3-.5-.1-.7.7-1.1,1.1-2.5,1.1-3.8,0-2-.9-4-2.4-5.4-1.3-1.2-3-1.8-4.8-1.8Z" style="fill:#005175;"/><path d="M58.8,146.8c-.3,0-.6-.2-.6-.6v-25c0-.3.2-.6.6-.6s.6.2.6.6v25c0,.3-.2.6-.6.6Z" style="fill:#005175;"/><line x1="55.3" y1="128.9" x2="58.8" y2="133.1" style="fill:#fff;"/><path d="M58.8,133.7c-.2,0-.3,0-.4-.2l-3.5-4.2c-.2-.2-.2-.6,0-.8.2-.2.6-.2.8,0l3.5,4.2c.2.2.2.6,0,.8-.1,0-.2.1-.4.1Z" style="fill:#005175;"/><line x1="62.6" y1="124.8" x2="58.8" y2="127.8" style="fill:#fff;"/><path d="M58.8,128.3c-.2,0-.3,0-.4-.2-.2-.2-.1-.6,0-.8l3.8-3c.2-.2.6-.1.8,0,.2.2.1.6,0,.8l-3.8,3c-.1,0-.2.1-.3.1Z" style="fill:#005175;"/></g></g></svg>