<?xml version="1.0" encoding="UTF-8"?><svg id="b" xmlns="http://www.w3.org/2000/svg" viewBox="0 0 441.2 194.9"><g id="c"><g id="d"><path d="M0,156c39.2.7,77.9,2.1,115.7,4.1,3.3.2,6.6.3,9.9.5,113.2,6.3,219.5,18,315.5,34.2V50C233.9,7.4,88.4,52,0,156Z" style="fill:#63a893;"/><rect x="407.1" y="48.8" width="1.1" height="13.9" style="fill:#005175;"/><polygon points="424.9 56 390.4 56 396.5 43.3 393.9 43.3 399.8 30.7 396.4 30.7 402 18.8 399 18.8 407.7 .5 416.3 18.8 413.4 18.8 419 30.7 415.5 30.7 421.5 43.3 418.9 43.3 424.9 56" style="fill:#8fa297;"/><path d="M424.9,56.6h-34.5c-.2,0-.4,0-.5-.3-.1-.2-.1-.4,0-.5l5.7-11.9h-1.7c-.2,0-.4,0-.5-.3-.1-.2-.1-.4,0-.5l5.6-11.8h-2.6c-.2,0-.4,0-.5-.3-.1-.2-.1-.4,0-.5l5.3-11.1h-2.1c-.2,0-.4,0-.5-.3-.1-.2-.1-.4,0-.5L407.2.3c.2-.4.8-.4,1,0l8.7,18.2c0,.2,0,.4,0,.5-.1.2-.3.3-.5.3h-2.1l5.3,11.1c0,.2,0,.4,0,.5-.1.2-.3.3-.5.3h-2.6l5.6,11.8c0,.2,0,.4,0,.5-.1.2-.3.3-.5.3h-1.7l5.7,11.9c0,.2,0,.4,0,.5-.1.2-.3.3-.5.3ZM391.3,55.4h32.7l-5.7-11.9c0-.2,0-.4,0-.5.1-.2.3-.3.5-.3h1.7l-5.6-11.8c0-.2,0-.4,0-.5.1-.2.3-.3.5-.3h2.6l-5.3-11.1c0-.2,0-.4,0-.5.1-.2.3-.3.5-.3h2.1l-7.8-16.4-7.8,16.4h2.1c.2,0,.4,0,.5.3.1.2.1.4,0,.5l-5.3,11.1h2.6c.2,0,.4,0,.5.3.1.2.1.4,0,.5l-5.6,11.8h1.7c.2,0,.4,0,.5.3.1.2.1.4,0,.5l-5.7,11.9Z" style="fill:#005175;"/><rect x="207.7" y="50.4" width="1.1" height="11.3" style="fill:#005175;"/><polygon points="222.2 56.2 194.3 56.2 199.2 45.9 197 45.9 201.9 35.7 199.1 35.7 203.6 26.1 201.2 26.1 208.2 11.3 215.2 26.1 212.8 26.1 217.4 35.7 214.6 35.7 219.4 45.9 217.3 45.9 222.2 56.2" style="fill:#8fa297;"/><path d="M222.2,56.8h-27.9c-.2,0-.4,0-.5-.3-.1-.2-.1-.4,0-.5l4.5-9.5h-1.2c-.2,0-.4,0-.5-.3-.1-.2-.1-.4,0-.5l4.5-9.4h-1.9c-.2,0-.4,0-.5-.3-.1-.2-.1-.4,0-.5l4.2-8.9h-1.5c-.2,0-.4,0-.5-.3-.1-.2-.1-.4,0-.5l7-14.8c.2-.4.8-.4,1,0l7,14.8c0,.2,0,.4,0,.5-.1.2-.3.3-.5.3h-1.5l4.2,8.9c0,.2,0,.4,0,.5-.1.2-.3.3-.5.3h-1.9l4.5,9.4c0,.2,0,.4,0,.5-.1.2-.3.3-.5.3h-1.2l4.5,9.5c0,.2,0,.4,0,.5-.1.2-.3.3-.5.3ZM195.1,55.7h26.2l-4.5-9.5c0-.2,0-.4,0-.5.1-.2.3-.3.5-.3h1.2l-4.5-9.4c0-.2,0-.4,0-.5.1-.2.3-.3.5-.3h1.9l-4.2-8.9c0-.2,0-.4,0-.5.1-.2.3-.3.5-.3h1.5l-6.1-12.9-6.1,12.9h1.5c.2,0,.4,0,.5.3.1.2.1.4,0,.5l-4.2,8.9h1.9c.2,0,.4,0,.5.3.1.2.1.4,0,.5l-4.5,9.4h1.2c.2,0,.4,0,.5.3.1.2.1.4,0,.5l-4.5,9.5Z" style="fill:#005175;"/><path d="M124.5,96.4c.6-.3,1.2-.7,1.7-1.2h0c2.4-2.4,2.2-6.6-.6-9.3l-12-12c-2.7-2.7-6.9-3-9.3-.6h0c-2.4,2.4-2.2,6.6.6,9.3l4,4" style="fill:#fff;"/><path d="M124.5,96.9c-.2,0-.4-.1-.5-.3-.1-.3,0-.6.3-.7.6-.3,1.1-.6,1.5-1,2.2-2.2,1.9-6-.6-8.5l-12-12c-1.2-1.2-2.8-2-4.4-2.1-1.6,0-3.1.4-4.1,1.5-2.2,2.2-1.9,6,.6,8.5l4,4c.2.2.2.6,0,.8-.2.2-.6.2-.8,0l-4-4c-2.9-2.9-3.2-7.5-.6-10.1,1.3-1.3,3-1.9,5-1.8,1.9.1,3.7,1,5.1,2.4l12,12c2.9,2.9,3.2,7.5.6,10.1-.5.5-1.2,1-1.9,1.3,0,0-.1,0-.2,0Z" style="fill:#005175;"/><line x1="112.9" y1="86.7" x2="119.7" y2="79.9" style="fill:#fff;"/><path d="M112.9,87.2c-.1,0-.3,0-.4-.2-.2-.2-.2-.6,0-.8l6.8-6.8c.2-.2.6-.2.8,0,.2.2.2.6,0,.8l-6.8,6.8c-.1.1-.2.2-.4.2Z" style="fill:#005175;"/><path d="M112.4,88.9c-5.4,0-9.8,1.6-9.8,3.6v4.5c0,2,4.4,3.6,9.8,3.6s9.8-1.6,9.8-3.6v-4.5c0-2-4.4-3.6-9.8-3.6Z" style="fill:#8eaf9f;"/><path d="M112.4,101.1c-5,0-10.3-1.4-10.3-4.1v-4.5c0-2.7,5.3-4.1,10.3-4.1s10.3,1.4,10.3,4.1v4.5c0,2.7-5.3,4.1-10.3,4.1ZM112.4,89.4c-5.3,0-9.2,1.6-9.2,3v4.5c0,1.4,3.9,3,9.2,3s9.2-1.6,9.2-3v-4.5c0-1.4-3.9-3-9.2-3Z" style="fill:#005175;"/><path d="M112.4,96.6c-5,0-10.3-1.4-10.3-4.1s.2-.6.6-.6.6.2.6.6c0,1.4,3.9,3,9.2,3s2.5,0,3.6-.3c.3,0,.6.2.6.5,0,.3-.2.6-.5.6-1.2.2-2.5.3-3.8.3Z" style="fill:#005175;"/><path d="M118.7,95.7c-.2,0-.5-.2-.5-.4,0-.3,0-.6.4-.7,1.9-.6,3.1-1.4,3.1-2.2s.2-.6.6-.6.6.2.6.6c0,1.3-1.4,2.5-3.9,3.3,0,0-.1,0-.2,0Z" style="fill:#005175;"/><line x1="106.5" y1="95.3" x2="117.7" y2="89.4" style="fill:#fff;"/><path d="M106.5,95.8c-.2,0-.4-.1-.5-.3-.1-.3,0-.6.2-.7l11.2-5.9c.3-.1.6,0,.7.2.1.3,0,.6-.2.7l-11.2,5.9c0,0-.2,0-.3,0Z" style="fill:#005175;"/></g></g></svg>