<?xml version="1.0" encoding="UTF-8"?><svg id="b" xmlns="http://www.w3.org/2000/svg" viewBox="0 0 441.2 217.7"><g id="c"><g id="d"><path d="M0,178.9c39.2.7,77.9,2.1,115.7,4.1,3.3.2,6.6.3,9.9.5,113.2,6.3,219.5,18,315.5,34.2V72.9C233.9,30.3,88.4,74.8,0,178.9Z" style="fill:#63a893;"/><rect x="407.1" y="71.7" width="1.1" height="13.9" style="fill:#005175;"/><polygon points="424.9 78.9 390.4 78.9 396.5 66.2 393.9 66.2 399.8 53.6 396.4 53.6 402 41.6 399 41.6 407.7 23.4 416.3 41.6 413.4 41.6 419 53.6 415.5 53.6 421.5 66.2 418.9 66.2 424.9 78.9" style="fill:#8fa297;"/><path d="M424.9,79.4h-34.5c-.2,0-.4,0-.5-.3-.1-.2-.1-.4,0-.5l5.7-11.9h-1.7c-.2,0-.4,0-.5-.3-.1-.2-.1-.4,0-.5l5.6-11.8h-2.6c-.2,0-.4,0-.5-.3-.1-.2-.1-.4,0-.5l5.3-11.1h-2.1c-.2,0-.4,0-.5-.3-.1-.2-.1-.4,0-.5l8.7-18.2c.2-.4.8-.4,1,0l8.7,18.2c0,.2,0,.4,0,.5-.1.2-.3.3-.5.3h-2.1l5.3,11.1c0,.2,0,.4,0,.5-.1.2-.3.3-.5.3h-2.6l5.6,11.8c0,.2,0,.4,0,.5-.1.2-.3.3-.5.3h-1.7l5.7,11.9c0,.2,0,.4,0,.5-.1.2-.3.3-.5.3ZM391.3,78.3h32.7l-5.7-11.9c0-.2,0-.4,0-.5.1-.2.3-.3.5-.3h1.7l-5.6-11.8c0-.2,0-.4,0-.5.1-.2.3-.3.5-.3h2.6l-5.3-11.1c0-.2,0-.4,0-.5.1-.2.3-.3.5-.3h2.1l-7.8-16.4-7.8,16.4h2.1c.2,0,.4,0,.5.3.1.2.1.4,0,.5l-5.3,11.1h2.6c.2,0,.4,0,.5.3.1.2.1.4,0,.5l-5.6,11.8h1.7c.2,0,.4,0,.5.3.1.2.1.4,0,.5l-5.7,11.9Z" style="fill:#005175;"/><rect x="207.7" y="73.3" width="1.1" height="11.3" style="fill:#005175;"/><polygon points="222.2 79.1 194.3 79.1 199.2 68.8 197 68.8 201.9 58.6 199.1 58.6 203.6 49 201.2 49 208.2 34.2 215.2 49 212.8 49 217.4 58.6 214.6 58.6 219.4 68.8 217.3 68.8 222.2 79.1" style="fill:#8fa297;"/><path d="M222.2,79.7h-27.9c-.2,0-.4,0-.5-.3-.1-.2-.1-.4,0-.5l4.5-9.5h-1.2c-.2,0-.4,0-.5-.3-.1-.2-.1-.4,0-.5l4.5-9.4h-1.9c-.2,0-.4,0-.5-.3-.1-.2-.1-.4,0-.5l4.2-8.9h-1.5c-.2,0-.4,0-.5-.3-.1-.2-.1-.4,0-.5l7-14.8c.2-.4.8-.4,1,0l7,14.8c0,.2,0,.4,0,.5-.1.2-.3.3-.5.3h-1.5l4.2,8.9c0,.2,0,.4,0,.5-.1.2-.3.3-.5.3h-1.9l4.5,9.4c0,.2,0,.4,0,.5-.1.2-.3.3-.5.3h-1.2l4.5,9.5c0,.2,0,.4,0,.5-.1.2-.3.3-.5.3ZM195.1,78.6h26.2l-4.5-9.5c0-.2,0-.4,0-.5.1-.2.3-.3.5-.3h1.2l-4.5-9.4c0-.2,0-.4,0-.5.1-.2.3-.3.5-.3h1.9l-4.2-8.9c0-.2,0-.4,0-.5.1-.2.3-.3.5-.3h1.5l-6.1-12.9-6.1,12.9h1.5c.2,0,.4,0,.5.3.1.2.1.4,0,.5l-4.2,8.9h1.9c.2,0,.4,0,.5.3.1.2.1.4,0,.5l-4.5,9.4h1.2c.2,0,.4,0,.5.3.1.2.1.4,0,.5l-4.5,9.5Z" style="fill:#005175;"/><polygon points="252.7 60.6 248.2 75.5 310.2 75.5 306.5 60.6 252.7 60.6" style="fill:#fff;"/><path d="M310.2,76.1h-62.1c-.2,0-.4,0-.5-.3-.1-.2-.2-.4,0-.6l4.6-14.9c0-.3.3-.4.6-.4h53.8c.3,0,.5.2.6.5l3.7,14.9c0,.2,0,.4-.1.5-.1.2-.3.2-.5.2ZM249,74.9h60.4l-3.4-13.7h-52.8l-4.2,13.7Z" style="fill:#045276;"/><polygon points="255.6 73 251.6 73 252.2 70.9 256.1 70.9 255.6 73" style="fill:#74a1be;"/><path d="M255.6,73.6h-4c-.2,0-.3,0-.4-.2s-.1-.3,0-.5l.5-2.1c0-.2.3-.4.5-.4h4c.2,0,.3,0,.4.2s.1.3,0,.5l-.5,2.1c0,.2-.3.4-.5.4ZM252.3,72.5h2.9l.3-1.1h-2.9l-.3,1.1Z" style="fill:#045276;"/><polygon points="262 73 258 73 258.6 70.9 262.5 70.9 262 73" style="fill:#74a1be;"/><path d="M262,73.6h-4c-.2,0-.3,0-.4-.2s-.1-.3,0-.5l.5-2.1c0-.2.3-.4.5-.4h4c.2,0,.3,0,.4.2s.1.3,0,.5l-.5,2.1c0,.2-.3.4-.5.4ZM258.7,72.5h2.9l.3-1.1h-2.9l-.3,1.1Z" style="fill:#045276;"/><polygon points="268.4 73 264.4 73 265 70.9 268.9 70.9 268.4 73" style="fill:#74a1be;"/><path d="M268.4,73.6h-4c-.2,0-.3,0-.4-.2s-.1-.3,0-.5l.5-2.1c0-.2.3-.4.5-.4h4c.2,0,.3,0,.4.2s.1.3,0,.5l-.5,2.1c0,.2-.3.4-.5.4ZM265.1,72.5h2.9l.3-1.1h-2.9l-.3,1.1Z" style="fill:#045276;"/><polygon points="287.9 73 270.8 73 271.3 70.9 287.3 70.9 287.9 73" style="fill:#74a1be;"/><path d="M287.9,73.6h-17.1c-.2,0-.3,0-.4-.2s-.1-.3,0-.5l.5-2.1c0-.2.3-.4.5-.4h16c.2,0,.5.2.5.4l.5,2.1c0,.2,0,.3,0,.5-.1.1-.3.2-.4.2ZM271.5,72.5h15.7l-.3-1.1h-15.2l-.3,1.1Z" style="fill:#045276;"/><polygon points="294.2 73 290.2 73 289.7 70.9 293.7 70.9 294.2 73" style="fill:#74a1be;"/><path d="M294.2,73.6h-4c-.2,0-.5-.2-.5-.4l-.5-2.1c0-.2,0-.3,0-.5.1-.1.3-.2.4-.2h4c.2,0,.5.2.5.4l.5,2.1c0,.2,0,.3,0,.5-.1.1-.3.2-.4.2ZM290.7,72.5h2.9l-.3-1.1h-2.9l.3,1.1Z" style="fill:#045276;"/><polygon points="300.6 73 296.6 73 296.1 70.9 300.1 70.9 300.6 73" style="fill:#74a1be;"/><path d="M300.6,73.6h-4c-.2,0-.5-.2-.5-.4l-.5-2.1c0-.2,0-.3,0-.5.1-.1.3-.2.4-.2h4c.2,0,.5.2.5.4l.5,2.1c0,.2,0,.3,0,.5-.1.1-.3.2-.4.2ZM297.1,72.5h2.9l-.3-1.1h-2.9l.3,1.1Z" style="fill:#045276;"/><polygon points="307 73 303 73 302.5 70.9 306.5 70.9 307 73" style="fill:#74a1be;"/><path d="M307,73.6h-4c-.2,0-.5-.2-.5-.4l-.5-2.1c0-.2,0-.3,0-.5.1-.1.3-.2.4-.2h4c.2,0,.5.2.5.4l.5,2.1c0,.2,0,.3,0,.5-.1.1-.3.2-.4.2ZM303.5,72.5h2.9l-.3-1.1h-2.9l.3,1.1Z" style="fill:#045276;"/><polygon points="256.6 68.9 252.7 68.9 253.2 66.8 257.2 66.8 256.6 68.9" style="fill:#74a1be;"/><path d="M256.6,69.4h-4c-.2,0-.3,0-.4-.2s-.1-.3,0-.5l.5-2.1c0-.2.3-.4.5-.4h4c.2,0,.3,0,.4.2s.1.3,0,.5l-.5,2.1c0,.2-.3.4-.5.4ZM253.4,68.4h2.9l.3-1.1h-2.9l-.3,1.1Z" style="fill:#045276;"/><polygon points="262.7 68.9 258.8 68.9 259.3 66.8 263.3 66.8 262.7 68.9" style="fill:#74a1be;"/><path d="M262.7,69.4h-4c-.2,0-.3,0-.4-.2s-.1-.3,0-.5l.5-2.1c0-.2.3-.4.5-.4h4c.2,0,.3,0,.4.2s.1.3,0,.5l-.5,2.1c0,.2-.3.4-.5.4ZM259.5,68.4h2.9l.3-1.1h-2.9l-.3,1.1Z" style="fill:#045276;"/><polygon points="268.8 68.9 264.9 68.9 265.4 66.8 269.4 66.8 268.8 68.9" style="fill:#74a1be;"/><path d="M268.8,69.4h-4c-.2,0-.3,0-.4-.2s-.1-.3,0-.5l.5-2.1c0-.2.3-.4.5-.4h4c.2,0,.3,0,.4.2s.1.3,0,.5l-.5,2.1c0,.2-.3.4-.5.4ZM265.6,68.4h2.9l.3-1.1h-2.9l-.3,1.1Z" style="fill:#045276;"/><polygon points="293.8 68.9 289.8 68.9 289.3 66.8 293.2 66.8 293.8 68.9" style="fill:#74a1be;"/><path d="M293.8,69.4h-4c-.2,0-.5-.2-.5-.4l-.5-2.1c0-.2,0-.3,0-.5.1-.1.3-.2.4-.2h4c.2,0,.5.2.5.4l.5,2.1c0,.2,0,.3,0,.5-.1.1-.3.2-.4.2ZM290.2,68.4h2.9l-.3-1.1h-2.9l.3,1.1Z" style="fill:#045276;"/><polygon points="299.9 68.9 295.9 68.9 295.4 66.8 299.3 66.8 299.9 68.9" style="fill:#74a1be;"/><path d="M299.9,69.4h-4c-.2,0-.5-.2-.5-.4l-.5-2.1c0-.2,0-.3,0-.5.1-.1.3-.2.4-.2h4c.2,0,.5.2.5.4l.5,2.1c0,.2,0,.3,0,.5-.1.1-.3.2-.4.2ZM296.3,68.4h2.9l-.3-1.1h-2.9l.3,1.1Z" style="fill:#045276;"/><polygon points="306 68.9 302 68.9 301.5 66.8 305.4 66.8 306 68.9" style="fill:#74a1be;"/><path d="M306,69.4h-4c-.2,0-.5-.2-.5-.4l-.5-2.1c0-.2,0-.3,0-.5.1-.1.3-.2.4-.2h4c.2,0,.5.2.5.4l.5,2.1c0,.2,0,.3,0,.5-.1.1-.3.2-.4.2ZM302.4,68.4h2.9l-.3-1.1h-2.9l.3,1.1Z" style="fill:#045276;"/><polygon points="287.7 68.9 283.7 68.9 283.2 66.8 287.1 66.8 287.7 68.9" style="fill:#74a1be;"/><path d="M287.7,69.4h-4c-.2,0-.5-.2-.5-.4l-.5-2.1c0-.2,0-.3,0-.5.1-.1.3-.2.4-.2h4c.2,0,.5.2.5.4l.5,2.1c0,.2,0,.3,0,.5-.1.1-.3.2-.4.2ZM284.1,68.4h2.9l-.3-1.1h-2.9l.3,1.1Z" style="fill:#045276;"/><polygon points="271 68.9 274.9 68.9 275.5 66.8 271.5 66.8 271 68.9" style="fill:#74a1be;"/><path d="M274.9,69.4h-4c-.2,0-.3,0-.4-.2s-.1-.3,0-.5l.5-2.1c0-.2.3-.4.5-.4h4c.2,0,.3,0,.4.2s.1.3,0,.5l-.5,2.1c0,.2-.3.4-.5.4ZM271.7,68.4h2.9l.3-1.1h-2.9l-.3,1.1Z" style="fill:#045276;"/><polygon points="281.3 68.9 277.3 68.9 277.9 66.8 280.8 66.8 281.3 68.9" style="fill:#74a1be;"/><path d="M281.3,69.4h-4c-.2,0-.3,0-.4-.2s-.1-.3,0-.5l.5-2.1c0-.2.3-.4.5-.4h2.9c.2,0,.5.2.5.4l.5,2.1c0,.2,0,.3,0,.5-.1.1-.3.2-.4.2ZM278,68.4h2.6l-.3-1.1h-2.1l-.3,1.1Z" style="fill:#045276;"/><polygon points="257.4 64.7 253.5 64.7 254 62.6 257.9 62.6 257.4 64.7" style="fill:#74a1be;"/><path d="M257.4,65.3h-3.8c-.2,0-.3,0-.4-.2-.1-.1-.1-.3-.1-.5l.5-2.1c0-.2.3-.4.5-.4h3.8c.2,0,.3,0,.4.2.1.1.1.3.1.5l-.5,2.1c0,.2-.3.4-.5.4ZM254.2,64.2h2.7l.3-1.1h-2.7l-.3,1.1Z" style="fill:#045276;"/><polygon points="263.3 64.7 259.4 64.7 259.9 62.6 263.8 62.6 263.3 64.7" style="fill:#74a1be;"/><path d="M263.3,65.3h-3.8c-.2,0-.3,0-.4-.2-.1-.1-.1-.3-.1-.5l.5-2.1c0-.2.3-.4.5-.4h3.8c.2,0,.3,0,.4.2.1.1.1.3.1.5l-.5,2.1c0,.2-.3.4-.5.4ZM260.1,64.2h2.7l.3-1.1h-2.7l-.3,1.1Z" style="fill:#045276;"/><polygon points="269.2 64.7 265.3 64.7 265.8 62.6 269.7 62.6 269.2 64.7" style="fill:#74a1be;"/><path d="M269.2,65.3h-3.8c-.2,0-.3,0-.4-.2-.1-.1-.1-.3-.1-.5l.5-2.1c0-.2.3-.4.5-.4h3.8c.2,0,.3,0,.4.2.1.1.1.3.1.5l-.5,2.1c0,.2-.3.4-.5.4ZM266,64.2h2.7l.3-1.1h-2.7l-.3,1.1Z" style="fill:#045276;"/><polygon points="293.3 64.7 289.5 64.7 289 62.6 292.8 62.6 293.3 64.7" style="fill:#74a1be;"/><path d="M293.3,65.3h-3.8c-.2,0-.5-.2-.5-.4l-.5-2.1c0-.2,0-.3.1-.5.1-.1.3-.2.4-.2h3.8c.2,0,.5.2.5.4l.5,2.1c0,.2,0,.3-.1.5-.1.1-.3.2-.4.2ZM289.9,64.2h2.7l-.3-1.1h-2.7l.3,1.1Z" style="fill:#045276;"/><polygon points="299.2 64.7 295.4 64.7 294.9 62.6 298.7 62.6 299.2 64.7" style="fill:#74a1be;"/><path d="M299.2,65.3h-3.8c-.2,0-.5-.2-.5-.4l-.5-2.1c0-.2,0-.3.1-.5s.3-.2.4-.2h3.8c.2,0,.5.2.5.4l.5,2.1c0,.2,0,.3-.1.5-.1.1-.3.2-.4.2ZM295.8,64.2h2.7l-.3-1.1h-2.7l.3,1.1Z" style="fill:#045276;"/><polygon points="305.1 64.7 301.3 64.7 300.8 62.6 304.6 62.6 305.1 64.7" style="fill:#74a1be;"/><path d="M305.1,65.3h-3.8c-.2,0-.5-.2-.5-.4l-.5-2.1c0-.2,0-.3.1-.5.1-.1.3-.2.4-.2h3.8c.2,0,.5.2.5.4l.5,2.1c0,.2,0,.3-.1.5-.1.1-.3.2-.4.2ZM301.7,64.2h2.7l-.3-1.1h-2.7l.3,1.1Z" style="fill:#045276;"/><polygon points="287.4 64.7 283.6 64.7 283.1 62.6 286.9 62.6 287.4 64.7" style="fill:#74a1be;"/><path d="M287.4,65.3h-3.8c-.2,0-.5-.2-.5-.4l-.5-2.1c0-.2,0-.3.1-.5.1-.1.3-.2.4-.2h3.8c.2,0,.5.2.5.4l.5,2.1c0,.2,0,.3-.1.5s-.3.2-.4.2ZM284,64.2h2.7l-.3-1.1h-2.7l.3,1.1Z" style="fill:#045276;"/><polygon points="271.2 64.7 275.1 64.7 275.6 62.6 271.7 62.6 271.2 64.7" style="fill:#74a1be;"/><path d="M275.1,65.3h-3.8c-.2,0-.3,0-.4-.2-.1-.1-.1-.3-.1-.5l.5-2.1c0-.2.3-.4.5-.4h3.8c.2,0,.3,0,.4.2.1.1.1.3.1.5l-.5,2.1c0,.2-.3.4-.5.4ZM271.9,64.2h2.7l.3-1.1h-2.7l-.3,1.1Z" style="fill:#045276;"/><polygon points="281.2 64.7 277.4 64.7 277.9 62.6 280.7 62.6 281.2 64.7" style="fill:#74a1be;"/><path d="M281.2,65.3h-3.8c-.2,0-.3,0-.4-.2-.1-.1-.1-.3-.1-.5l.5-2.1c0-.2.3-.4.5-.4h2.8c.2,0,.5.2.5.4l.5,2.1c0,.2,0,.3-.1.5-.1.1-.3.2-.4.2ZM278.1,64.2h2.5l-.3-1.1h-2l-.3,1.1Z" style="fill:#045276;"/><path d="M290.3,50.1h-21.8c-2.2,0-4.3.8-6.3,2.2h-.2c0,.1,34.8.1,34.8.1h-.2c-2-1.6-4.2-2.4-6.3-2.4Z" style="fill:#fff;"/><path d="M296.8,53h-34.8c-.2,0-.4-.2-.5-.4,0-.2,0-.5.2-.6h.2c2.1-1.7,4.4-2.5,6.6-2.5h21.8c2.3,0,4.5.8,6.6,2.3h.2c.2.3.3.5.2.8,0,.2-.3.4-.5.4ZM263.8,51.9h31.2c-1.5-.8-3.1-1.3-4.7-1.3h-21.8c-1.6,0-3.2.4-4.7,1.3Z" style="fill:#045276;"/><rect x="269.9" y="19.8" width="19.3" height="34.9" rx="1.3" ry="1.3" style="fill:#fff;"/><path d="M288.4,55.3h-17.6c-.8,0-1.4-.6-1.4-1.4V20.6c0-.8.6-1.4,1.4-1.4h17.6c.8,0,1.4.6,1.4,1.4v33.3c0,.8-.6,1.4-1.4,1.4ZM270.7,20.4c-.1,0-.2.1-.2.2v33.3c0,.1.1.2.2.2h17.6c.1,0,.2-.1.2-.2V20.6c0-.1-.1-.2-.2-.2h-17.6Z" style="fill:#045276;"/><rect x="262" y="52.4" width="34.8" height="3.7" style="fill:#fff;"/><path d="M296.8,56.6h-34.8c-.3,0-.6-.3-.6-.6v-3.7c0-.3.3-.6.6-.6h34.8c.3,0,.6.3.6.6v3.7c0,.3-.3.6-.6.6ZM262.6,55.4h33.6v-2.5h-33.6v2.5Z" style="fill:#045276;"/><rect x="245.9" y=".6" width="66.8" height="43.8" rx="2.7" ry="2.7" style="fill:#fff;"/><path d="M311,45h-63.3c-1.3,0-2.4-1.1-2.4-2.4V2.4c0-1.3,1.1-2.4,2.4-2.4h63.3c1.3,0,2.4,1.1,2.4,2.4v40.3c0,1.3-1.1,2.4-2.4,2.4ZM247.7,1.2c-.6,0-1.1.5-1.1,1.1v40.3c0,.6.5,1.1,1.1,1.1h63.3c.6,0,1.1-.5,1.1-1.1V2.4c0-.6-.5-1.1-1.1-1.1h-63.3Z" style="fill:#045276;"/><path d="M309.9,6.5v32c0,.8-.7,1.5-1.5,1.5h-58.2c-.8,0-1.5-.7-1.5-1.5V6.5c0-.8.7-1.5,1.5-1.5h58.2c.8,0,1.5.7,1.5,1.5Z" style="fill:#74a1be;"/><path d="M308.4,40.6h-58.2c-1.2,0-2.1-.9-2.1-2.1V6.5c0-1.2.9-2.1,2.1-2.1h58.2c1.2,0,2.1.9,2.1,2.1v32c0,1.2-1,2.1-2.1,2.1ZM250.2,5.7c-.5,0-.9.4-.9.9v32c0,.5.4.9.9.9h58.2c.5,0,.9-.4.9-.9V6.5c0-.5-.4-.9-.9-.9h-58.2Z" style="fill:#045276;"/><path d="M284,11.4h-29.8c-.4,0-.6-.3-.6-.6s.3-.6.6-.6h29.8c.4,0,.6.3.6.6s-.3.6-.6.6Z" style="fill:#045276;"/><path d="M284,15.9h-29.8c-.4,0-.6-.3-.6-.6s.3-.6.6-.6h29.8c.4,0,.6.3.6.6s-.3.6-.6.6Z" style="fill:#045276;"/><path d="M284,20.3h-29.8c-.4,0-.6-.3-.6-.6s.3-.6.6-.6h29.8c.4,0,.6.3.6.6s-.3.6-.6.6Z" style="fill:#045276;"/><path d="M284,24.8h-29.8c-.4,0-.6-.3-.6-.6s.3-.6.6-.6h29.8c.4,0,.6.3.6.6s-.3.6-.6.6Z" style="fill:#045276;"/><path d="M272,30.9h-17.8c-.4,0-.6-.3-.6-.6s.3-.6.6-.6h17.8c.4,0,.6.3.6.6s-.3.6-.6.6Z" style="fill:#045276;"/><path d="M284,34.9h-29.8c-.4,0-.6-.3-.6-.6s.3-.6.6-.6h29.8c.4,0,.6.3.6.6s-.3.6-.6.6Z" style="fill:#045276;"/><polygon points="262.7 5 248.7 19 248.7 17.2 260.9 5 262.7 5" style="fill:#fff;"/><polygon points="259.4 3.9 247.8 15.4 247.8 13.6 257.6 3.9 259.4 3.9" style="fill:#fff;"/><path d="M308.4,40.6h-58.2c-1.2,0-2.1-.9-2.1-2.1V6.5c0-1.2.9-2.1,2.1-2.1h58.2c1.2,0,2.1.9,2.1,2.1v32c0,1.2-1,2.1-2.1,2.1ZM250.2,5.7c-.5,0-.9.4-.9.9v32c0,.5.4.9.9.9h58.2c.5,0,.9-.4.9-.9V6.5c0-.5-.4-.9-.9-.9h-58.2Z" style="fill:#045276;"/><path d="M303.8,10.2h10.1c3.8,0,7,3.1,7,7v15.7c0,1-.8,1.8-1.8,1.8h-15.3c-1,0-1.8-.8-1.8-1.8V12c0-1,.8-1.8,1.8-1.8Z" style="fill:#fff;"/><path d="M320.2,15.1h-3.5c-.4,0-.7-.3-.7-.7v-3.5c0-.4.3-.7.7-.7s.7.3.7.7v2.9h2.9c.4,0,.7.3.7.7s-.3.7-.7.7Z" style="fill:#045276;"/><path d="M321,35.6h-18.9c-.4,0-.7-.3-.7-.7V10.1c0-.4.3-.7.7-.7h15.4c.2,0,.3,0,.5.2l3.5,3.5c.1.1.2.3.2.5v21.3c0,.4-.3.7-.7.7ZM302.7,34.3h17.6V13.9l-3.1-3.1h-14.4v23.5Z" style="fill:#045276;"/><path d="M299,23.2h-6.7c-.4,0-.7-.3-.7-.7s.3-.7.7-.7h6.7c.4,0,.7.3.7.7s-.3.7-.7.7Z" style="fill:#fff;"/><path d="M296.5,25.7c-.2,0-.3,0-.5-.2-.3-.3-.3-.7,0-.9l2-2-2-2c-.3-.3-.3-.7,0-.9.3-.3.7-.3.9,0l2.5,2.5c.3.3.3.7,0,.9l-2.5,2.5c-.1.1-.3.2-.5.2Z" style="fill:#fff;"/><rect x="304.6" y="25.6" width="13.8" height="1.3" rx=".6" ry=".6" style="fill:#045276;"/><rect x="304.6" y="21.6" width="13.8" height="1.3" rx=".6" ry=".6" style="fill:#045276;"/><rect x="304.6" y="17.6" width="13.8" height="1.3" rx=".6" ry=".6" style="fill:#045276;"/><rect x="304.6" y="14" width="6.3" height="1.3" rx=".6" ry=".6" style="fill:#045276;"/><rect x="304.6" y="29.6" width="7.5" height="1.3" rx=".6" ry=".6" style="fill:#045276;"/><path d="M124.5,119.2c.6-.3,1.2-.7,1.7-1.2h0c2.4-2.4,2.2-6.6-.6-9.3l-12-12c-2.7-2.7-6.9-3-9.3-.6h0c-2.4,2.4-2.2,6.6.6,9.3l4,4" style="fill:#fff;"/><path d="M124.5,119.8c-.2,0-.4-.1-.5-.3-.1-.3,0-.6.3-.7.6-.3,1.1-.6,1.5-1,2.2-2.2,1.9-6-.6-8.5l-12-12c-1.2-1.2-2.8-2-4.4-2.1-1.6,0-3.1.4-4.1,1.5-2.2,2.2-1.9,6,.6,8.5l4,4c.2.2.2.6,0,.8-.2.2-.6.2-.8,0l-4-4c-2.9-2.9-3.2-7.5-.6-10.1,1.3-1.3,3-1.9,5-1.8,1.9.1,3.7,1,5.1,2.4l12,12c2.9,2.9,3.2,7.5.6,10.1-.5.5-1.2,1-1.9,1.3,0,0-.1,0-.2,0Z" style="fill:#005175;"/><line x1="112.9" y1="109.5" x2="119.7" y2="102.8" style="fill:#fff;"/><path d="M112.9,110.1c-.1,0-.3,0-.4-.2-.2-.2-.2-.6,0-.8l6.8-6.8c.2-.2.6-.2.8,0,.2.2.2.6,0,.8l-6.8,6.8c-.1.1-.2.2-.4.2Z" style="fill:#005175;"/><path d="M112.4,111.7c-5.4,0-9.8,1.6-9.8,3.6v4.5c0,2,4.4,3.6,9.8,3.6s9.8-1.6,9.8-3.6v-4.5c0-2-4.4-3.6-9.8-3.6Z" style="fill:#8eaf9f;"/><path d="M112.4,124c-5,0-10.3-1.4-10.3-4.1v-4.5c0-2.7,5.3-4.1,10.3-4.1s10.3,1.4,10.3,4.1v4.5c0,2.7-5.3,4.1-10.3,4.1ZM112.4,112.3c-5.3,0-9.2,1.6-9.2,3v4.5c0,1.4,3.9,3,9.2,3s9.2-1.6,9.2-3v-4.5c0-1.4-3.9-3-9.2-3Z" style="fill:#005175;"/><path d="M112.4,119.4c-5,0-10.3-1.4-10.3-4.1s.2-.6.6-.6.6.2.6.6c0,1.4,3.9,3,9.2,3s2.5,0,3.6-.3c.3,0,.6.2.6.5,0,.3-.2.6-.5.6-1.2.2-2.5.3-3.8.3Z" style="fill:#005175;"/><path d="M118.7,118.6c-.2,0-.5-.2-.5-.4,0-.3,0-.6.4-.7,1.9-.6,3.1-1.4,3.1-2.2s.2-.6.6-.6.6.2.6.6c0,1.3-1.4,2.5-3.9,3.3,0,0-.1,0-.2,0Z" style="fill:#005175;"/><line x1="106.5" y1="118.2" x2="117.7" y2="112.3" style="fill:#fff;"/><path d="M106.5,118.7c-.2,0-.4-.1-.5-.3-.1-.3,0-.6.2-.7l11.2-5.9c.3-.1.6,0,.7.2.1.3,0,.6-.2.7l-11.2,5.9c0,0-.2,0-.3,0Z" style="fill:#005175;"/></g></g></svg>